<svg width="60" height="60" viewBox="0 0 60 60" fill="none" xmlns="http://www.w3.org/2000/svg">
<path d="M24.1457 23.7717C24.1457 20.9414 22.2201 20.9414 22.2201 20.9414H21.2006H14.2983V27.0144H21.7291C23.0132 27.0138 24.1457 26.6032 24.1457 23.7717Z" fill="#C8C8C8"/>
<path d="M22.2208 31.21H14.2983V38.4836H21.8549C22.9917 38.4511 25.0897 38.0951 25.0897 34.9481C25.0897 31.1719 22.2208 31.21 22.2208 31.21Z" fill="#C8C8C8"/>
<path d="M42.5022 27.0146C38.2982 27.0146 37.712 31.21 37.712 31.21H46.6522C46.6528 31.21 46.7062 27.0146 42.5022 27.0146Z" fill="#C8C8C8"/>
<path d="M36.5408 16.7072H35.5408V17.7072V21.0586V22.0586H36.5408H41.4081C39.0882 22.2038 37.2444 22.8618 35.7918 23.8299C34.1452 24.9273 33.0605 26.3835 32.3482 27.8092C31.7317 29.0432 31.387 30.268 31.1931 31.2537C30.8543 30.4014 30.3335 29.5228 29.5275 28.8277C29.304 28.6349 29.0624 28.4597 28.8021 28.3047C29.9474 27.3866 30.9214 25.8398 30.9214 23.35C30.9214 20.6648 29.9746 18.5624 28.3398 17.1451C26.7258 15.7459 24.5459 15.1039 22.2199 15.1039H14.2981H14.0655H8.05811H7.05811V16.1039V43.3191V44.3191H8.05811H14.0655H14.2981H22.209L22.2293 44.3195C22.2509 44.3198 22.2807 44.3201 22.3181 44.3201C22.3927 44.3201 22.4978 44.3188 22.629 44.3139C22.8911 44.3042 23.2593 44.2803 23.6988 44.2238C24.5726 44.1115 25.7556 43.8669 26.9525 43.3296C28.1528 42.7909 29.3924 41.9459 30.3303 40.6237C30.8801 39.8487 31.3104 38.9318 31.5737 37.8546C31.7093 38.2657 31.8731 38.6872 32.0709 39.1099C32.7427 40.5455 33.8129 42.0054 35.5032 43.1015C37.1906 44.1956 39.4298 44.8843 42.3715 44.8881L42.379 44.8884C42.3891 44.8889 42.401 44.8893 42.4147 44.8899C42.4311 44.8905 42.4499 44.8911 42.4712 44.8917C42.5492 44.894 42.6599 44.8961 42.7985 44.8958C43.0755 44.8951 43.466 44.8847 43.9327 44.8465C44.8603 44.7705 46.1176 44.5822 47.391 44.1238C48.6634 43.6656 49.9994 42.9203 51.0203 41.701C52.0552 40.4649 52.7086 38.8093 52.7086 36.65V35.8411H52.7461L52.8598 34.9706L51.8682 34.8411C52.8598 34.9706 52.8599 34.9701 52.8599 34.9696L52.8601 34.9683L52.8605 34.9649L52.8618 34.9548L52.8657 34.922C52.8689 34.8946 52.8731 34.8562 52.878 34.8075C52.8876 34.7101 52.8998 34.5715 52.911 34.3974C52.9332 34.0496 52.9514 33.5583 52.9368 32.9705C52.9078 31.8017 52.7482 30.2184 52.2105 28.6165C51.6716 27.0112 50.739 25.3485 49.1415 24.0888C47.7167 22.9654 45.8289 22.2148 43.3695 22.0586H47.7698H48.7698V21.0586V17.7072V16.7072H47.7698H36.5408ZM38.8481 35.8411H45.8733L45.9198 36.6898C45.9197 36.6953 45.9195 36.7057 45.9187 36.7203C45.9165 36.759 45.9104 36.8249 45.8934 36.9088C45.8592 37.0775 45.7841 37.304 45.6213 37.5308C45.3316 37.9345 44.587 38.5779 42.5555 38.5779H42.5221L42.4936 38.5798L42.492 38.5799L42.492 38.5799L42.4906 38.58L42.47 38.5808C42.4474 38.5815 42.4094 38.5823 42.3582 38.5818C42.2555 38.581 42.1022 38.5752 41.9156 38.5548C41.537 38.5136 41.0512 38.4153 40.5794 38.1978C40.114 37.9833 39.6757 37.6596 39.3492 37.1644C39.1349 36.8393 38.9495 36.4112 38.8481 35.8411ZM1 30C1 13.9843 13.9837 1 30 1C46.0163 1 59 13.9843 59 30C59 46.0157 46.0163 59 30 59C13.9837 59 1 46.0157 1 30Z" stroke="#C8C8C8" stroke-width="2"/>
</svg>
