<svg width="236" height="236" viewBox="0 0 236 236" fill="none" xmlns="http://www.w3.org/2000/svg">
<g filter="url(#filter0_dd)">
<rect x="18" y="18" width="200" height="200" rx="100" fill="#424355"/>
</g>
<path d="M152 80H84L90 148L118 156L146 148L152 80Z" fill="#0277BD"/>
<path d="M118 86V149.8L140.4 143.4L145.4 86H118Z" fill="#039BE5"/>
<path d="M136.2 96H118V104H127.8L127.2 112H118V120H126.8L126.2 129L118 131.8V140.2L133.8 135L135.2 112L136.2 96Z" fill="white"/>
<path d="M118 96V104H100.2L99.6 96H118ZM108.8 112L109.2 120H118V112H108.8ZM109.6 124H101.6L102.2 135L118 140.2V131.8L109.8 129L109.6 124Z" fill="#EEEEEE"/>
<defs>
<filter id="filter0_dd" x="0" y="0" width="236" height="236" filterUnits="userSpaceOnUse" color-interpolation-filters="sRGB">
<feFlood flood-opacity="0" result="BackgroundImageFix"/>
<feColorMatrix in="SourceAlpha" type="matrix" values="0 0 0 0 0 0 0 0 0 0 0 0 0 0 0 0 0 0 127 0"/>
<feOffset dx="6" dy="6"/>
<feGaussianBlur stdDeviation="6"/>
<feColorMatrix type="matrix" values="0 0 0 0 0 0 0 0 0 0 0 0 0 0 0 0 0 0 0.25 0"/>
<feBlend mode="normal" in2="BackgroundImageFix" result="effect1_dropShadow"/>
<feColorMatrix in="SourceAlpha" type="matrix" values="0 0 0 0 0 0 0 0 0 0 0 0 0 0 0 0 0 0 127 0"/>
<feOffset dx="-6" dy="-6"/>
<feGaussianBlur stdDeviation="6"/>
<feColorMatrix type="matrix" values="0 0 0 0 0.371875 0 0 0 0 0.378399 0 0 0 0 0.495833 0 0 0 1 0"/>
<feBlend mode="normal" in2="effect1_dropShadow" result="effect2_dropShadow"/>
<feBlend mode="normal" in="SourceGraphic" in2="effect2_dropShadow" result="shape"/>
</filter>
</defs>
</svg>
