<svg width="60" height="60" viewBox="0 0 60 60" fill="none" xmlns="http://www.w3.org/2000/svg">
<path d="M30 0C13.4812 0 0 13.4824 0 30C0 46.5187 13.4824 60 30 60C46.5187 60 60 46.5176 60 30C60 13.4812 46.5176 0 30 0ZM50.3484 13.0676C54.0938 17.5605 56.3801 23.3086 56.4785 29.5781C51.784 28.4801 46.5703 28.4062 41.2605 29.3742C39.8789 29.6262 38.4973 29.9461 37.1238 30.3305C36.6668 29.0871 36.1816 27.8543 35.666 26.6332C35.1398 25.3875 34.5844 24.1629 34.0031 22.9559C40.3301 20.5395 47.1855 16.9418 50.3484 13.0676ZM30 3.51562C36.893 3.51562 43.1777 6.16289 47.8945 10.493C46.0547 13.002 40.8117 16.6547 32.4 19.8047C29.4633 14.3367 25.9418 9.31172 21.873 4.79297C24.4348 3.96445 27.1664 3.51562 30 3.51562ZM18.3926 6.19922C22.5422 10.6441 26.1117 15.6082 29.052 20.9707C20.3004 23.8031 11.4398 24.9586 4.1543 24.2121C5.92852 16.2844 11.2664 9.68789 18.3926 6.19922ZM3.51562 30C3.51562 29.2219 3.55195 28.452 3.61758 27.6914C5.22539 27.8613 6.90234 27.9469 8.63555 27.9469C15.4711 27.9469 23.1504 26.632 30.6914 24.1348C31.8422 26.4902 32.877 28.9137 33.7898 31.3969C30.8496 32.4539 27.9879 33.798 25.3008 35.3977C18.7125 39.3199 13.8926 44.366 11.8934 49.309C6.74062 44.4738 3.51562 37.6066 3.51562 30ZM30 56.4844C24.341 56.4844 19.091 54.6996 14.782 51.6633C16.118 47.1492 20.6367 42.266 27.0996 38.4188C29.3766 37.0617 32.0391 35.7832 34.9371 34.7438C36.9914 41.2008 38.25 48.0164 38.6496 55.0324C35.9379 55.9723 33.0281 56.4844 30 56.4844ZM42.0785 53.5664C41.591 46.732 40.3184 40.0781 38.2758 33.6867C43.9711 32.1211 50.2969 31.5961 56.2957 33.1523C55.234 42.0598 49.7355 49.6254 42.0785 53.5664Z" fill="#474747"/>
</svg>
