<svg width="1440" height="805" viewBox="0 0 1440 805" fill="none" xmlns="http://www.w3.org/2000/svg">
<rect width="1440" height="805" fill="#3C3C3C"/>
<rect width="1440" height="805" fill="url(#paint0_linear)"/>
<g clip-path="url(#clip0)">
<path d="M279.375 568.741V655.477H498.258C523.197 655.477 543.488 636.022 543.488 612.109C543.488 588.196 523.197 568.741 498.258 568.741H279.375Z" fill="#F2F2F2"/>
<path d="M273.999 654.81C273.999 655.694 274.353 656.543 274.983 657.168C275.613 657.794 276.468 658.145 277.359 658.146H502.157C514.366 658.146 526.076 653.331 534.709 644.76C543.342 636.189 548.192 624.564 548.192 612.442C548.192 600.321 543.342 588.696 534.709 580.125C526.076 571.554 514.366 566.739 502.157 566.739H277.359C276.468 566.739 275.613 567.09 274.983 567.716C274.353 568.342 273.999 569.19 273.999 570.075C273.999 570.96 274.353 571.808 274.983 572.434C275.613 573.06 276.468 573.411 277.359 573.411H502.157C512.584 573.411 522.584 577.523 529.957 584.843C537.33 592.163 541.472 602.091 541.472 612.442C541.472 622.794 537.33 632.722 529.957 640.042C522.584 647.362 512.584 651.474 502.157 651.474H277.359C276.468 651.474 275.613 651.826 274.983 652.451C274.353 653.077 273.999 653.925 273.999 654.81Z" fill="#B56AFF"/>
<path d="M279.375 588.757H514.59C514.768 588.757 514.939 588.686 515.065 588.561C515.191 588.436 515.262 588.267 515.262 588.09C515.262 587.913 515.191 587.743 515.065 587.618C514.939 587.493 514.768 587.422 514.59 587.422H279.375C279.197 587.422 279.026 587.493 278.9 587.618C278.774 587.743 278.703 587.913 278.703 588.09C278.703 588.267 278.774 588.436 278.9 588.561C279.026 588.686 279.197 588.757 279.375 588.757Z" fill="#CCCCCC"/>
<path d="M279.375 604.77H514.59C514.768 604.77 514.939 604.699 515.065 604.574C515.191 604.449 515.262 604.279 515.262 604.103C515.262 603.926 515.191 603.756 515.065 603.631C514.939 603.506 514.768 603.435 514.59 603.435H279.375C279.197 603.435 279.026 603.506 278.9 603.631C278.774 603.756 278.703 603.926 278.703 604.103C278.703 604.279 278.774 604.449 278.9 604.574C279.026 604.699 279.197 604.77 279.375 604.77Z" fill="#CCCCCC"/>
<path d="M279.375 620.783H514.59C514.768 620.783 514.939 620.712 515.065 620.587C515.191 620.462 515.262 620.292 515.262 620.115C515.262 619.938 515.191 619.769 515.065 619.644C514.939 619.519 514.768 619.448 514.59 619.448H279.375C279.197 619.448 279.026 619.519 278.9 619.644C278.774 619.769 278.703 619.938 278.703 620.115C278.703 620.292 278.774 620.462 278.9 620.587C279.026 620.712 279.197 620.783 279.375 620.783Z" fill="#CCCCCC"/>
<path d="M279.375 636.795H514.59C514.768 636.795 514.939 636.725 515.065 636.6C515.191 636.475 515.262 636.305 515.262 636.128C515.262 635.951 515.191 635.781 515.065 635.656C514.939 635.531 514.768 635.461 514.59 635.461H279.375C279.197 635.461 279.026 635.531 278.9 635.656C278.774 635.781 278.703 635.951 278.703 636.128C278.703 636.305 278.774 636.475 278.9 636.6C279.026 636.725 279.197 636.795 279.375 636.795Z" fill="#CCCCCC"/>
<path d="M110.21 585.068L165.025 652.608L335.465 516.265C354.885 500.73 358.389 472.942 343.277 454.321C328.165 435.701 300.07 433.19 280.65 448.725L110.21 585.068Z" fill="#F2F2F2"/>
<path d="M160.417 655.437C160.976 656.126 161.788 656.566 162.674 656.66C163.56 656.755 164.448 656.496 165.142 655.942L340.188 515.914C349.695 508.309 355.769 497.266 357.075 485.214C358.381 473.162 354.811 461.089 347.151 451.651C339.491 442.212 328.367 436.181 316.228 434.885C304.089 433.588 291.928 437.132 282.421 444.738L107.375 584.765C107.031 585.04 106.745 585.379 106.533 585.764C106.322 586.148 106.188 586.57 106.141 587.006C106.094 587.442 106.133 587.883 106.258 588.303C106.382 588.724 106.588 589.116 106.865 589.457C107.142 589.798 107.484 590.082 107.872 590.292C108.259 590.502 108.685 590.634 109.123 590.681C109.562 590.728 110.006 590.688 110.43 590.564C110.853 590.441 111.248 590.236 111.592 589.96L286.638 449.933C290.658 446.715 295.277 444.314 300.232 442.868C305.186 441.423 310.379 440.961 315.514 441.508C320.648 442.055 325.624 443.602 330.157 446.059C334.689 448.515 338.69 451.835 341.93 455.827C345.17 459.819 347.586 464.406 349.04 469.326C350.494 474.245 350.958 479.401 350.405 484.499C349.851 489.596 348.292 494.535 345.815 499.034C343.339 503.533 339.994 507.504 335.971 510.719L160.925 650.746C160.232 651.302 159.788 652.108 159.693 652.987C159.598 653.867 159.858 654.748 160.417 655.437Z" fill="#CCCCCC"/>
<path d="M122.86 600.654L306.017 454.138C306.086 454.083 306.143 454.015 306.185 453.938C306.227 453.861 306.254 453.777 306.263 453.69C306.273 453.603 306.265 453.515 306.24 453.43C306.215 453.346 306.174 453.268 306.119 453.2C306.063 453.132 305.995 453.075 305.917 453.033C305.84 452.991 305.755 452.964 305.667 452.955C305.579 452.946 305.491 452.953 305.406 452.978C305.321 453.003 305.242 453.044 305.174 453.099L122.016 599.615C121.947 599.67 121.89 599.738 121.848 599.814C121.805 599.891 121.779 599.976 121.769 600.063C121.76 600.15 121.767 600.238 121.792 600.323C121.817 600.407 121.859 600.485 121.914 600.553C121.969 600.622 122.038 600.679 122.115 600.721C122.193 600.763 122.278 600.789 122.366 600.798C122.454 600.808 122.542 600.8 122.627 600.775C122.712 600.75 122.791 600.709 122.86 600.654V600.654Z" fill="#CCCCCC"/>
<path d="M132.979 613.123L316.137 466.607C316.275 466.496 316.364 466.335 316.383 466.159C316.401 465.983 316.349 465.807 316.238 465.669C316.126 465.532 315.964 465.444 315.787 465.425C315.61 465.406 315.432 465.457 315.293 465.568L132.136 612.084C132.067 612.139 132.01 612.207 131.967 612.283C131.925 612.36 131.898 612.445 131.889 612.532C131.879 612.619 131.887 612.707 131.912 612.792C131.937 612.876 131.978 612.954 132.034 613.022C132.089 613.091 132.158 613.147 132.235 613.189C132.313 613.231 132.398 613.258 132.486 613.267C132.573 613.277 132.662 613.269 132.747 613.244C132.832 613.219 132.911 613.178 132.979 613.123Z" fill="#CCCCCC"/>
<path d="M143.099 625.592L326.256 479.076C326.395 478.965 326.484 478.804 326.503 478.628C326.522 478.452 326.47 478.276 326.358 478.138C326.246 478 326.084 477.912 325.907 477.893C325.729 477.874 325.552 477.926 325.413 478.037L142.256 624.553C142.187 624.608 142.13 624.676 142.087 624.753C142.045 624.829 142.019 624.914 142.009 625.001C142 625.088 142.008 625.176 142.032 625.26C142.057 625.344 142.099 625.423 142.154 625.491C142.209 625.559 142.278 625.616 142.355 625.658C142.433 625.7 142.518 625.726 142.605 625.736C142.693 625.745 142.782 625.737 142.867 625.712C142.951 625.688 143.03 625.647 143.099 625.592V625.592Z" fill="#CCCCCC"/>
<path d="M153.219 638.061L336.376 491.545C336.445 491.49 336.502 491.422 336.544 491.345C336.586 491.268 336.613 491.184 336.623 491.096C336.632 491.009 336.624 490.921 336.599 490.837C336.574 490.753 336.533 490.675 336.478 490.606C336.422 490.538 336.354 490.482 336.276 490.44C336.199 490.398 336.114 490.371 336.026 490.362C335.938 490.352 335.85 490.36 335.765 490.385C335.68 490.41 335.601 490.451 335.533 490.506L152.375 637.021C152.307 637.076 152.249 637.144 152.207 637.221C152.164 637.298 152.138 637.383 152.128 637.47C152.119 637.557 152.127 637.645 152.151 637.729C152.176 637.813 152.218 637.892 152.273 637.96C152.328 638.028 152.397 638.085 152.474 638.127C152.552 638.169 152.637 638.196 152.725 638.205C152.813 638.214 152.902 638.206 152.986 638.182C153.071 638.157 153.15 638.116 153.219 638.061Z" fill="#CCCCCC"/>
<path d="M98.672 658.813H597.328C597.506 658.813 597.677 658.743 597.803 658.618C597.929 658.493 598 658.323 598 658.146C598 657.969 597.929 657.799 597.803 657.674C597.677 657.549 597.506 657.479 597.328 657.479H98.672C98.4938 657.479 98.3229 657.549 98.1968 657.674C98.0708 657.799 98 657.969 98 658.146C98 658.323 98.0708 658.493 98.1968 658.618C98.3229 658.743 98.4938 658.813 98.672 658.813Z" fill="#CCCCCC"/>
<path d="M370.795 559.624L378.478 559.623L382.132 530.202L370.792 530.204L370.795 559.624Z" fill="#FFB8B8"/>
<path d="M383.966 557.444H369.149V566.706H393.295C393.295 565.49 393.054 564.285 392.585 563.162C392.116 562.038 391.429 561.017 390.563 560.157C389.697 559.297 388.668 558.615 387.536 558.149C386.404 557.684 385.191 557.444 383.966 557.444Z" fill="#2F2E41"/>
<path d="M449.286 559.624L456.969 559.623L460.623 530.202L449.284 530.204L449.286 559.624Z" fill="#FFB8B8"/>
<path d="M462.457 557.444H447.64V566.706H471.786C471.786 565.49 471.545 564.285 471.076 563.162C470.607 562.038 469.92 561.017 469.054 560.157C468.188 559.297 467.159 558.615 466.027 558.149C464.895 557.684 463.682 557.444 462.457 557.444Z" fill="#2F2E41"/>
<path d="M423.624 341.389V338.053C423.624 332.347 421.341 326.874 417.276 322.838C413.212 318.803 407.699 316.536 401.951 316.536H401.951C396.203 316.536 390.69 318.803 386.626 322.838C382.561 326.874 380.278 332.347 380.278 338.053V341.389C380.278 345.504 381.924 349.449 384.854 352.358C387.784 355.268 391.759 356.902 395.903 356.902H407.999C410.051 356.902 412.083 356.501 413.979 355.721C415.875 354.942 417.597 353.799 419.048 352.358C420.499 350.918 421.65 349.208 422.435 347.326C423.22 345.444 423.624 343.427 423.624 341.389Z" fill="#2F2E41"/>
<path d="M401.951 358.05C392.835 358.05 385.445 350.713 385.445 341.663C385.445 332.612 392.835 325.275 401.951 325.275C411.067 325.275 418.457 332.612 418.457 341.663C418.457 350.713 411.067 358.05 401.951 358.05Z" fill="#FFB8B8"/>
<path d="M491.733 397.983C491.064 397.355 490.263 396.881 489.389 396.593C488.514 396.305 487.587 396.212 486.672 396.318C485.757 396.425 484.877 396.73 484.093 397.211C483.309 397.692 482.642 398.337 482.137 399.102L467.987 396.445L464.263 404.588L484.298 408.062C485.649 408.819 487.232 409.058 488.749 408.733C490.265 408.409 491.609 407.544 492.525 406.301C493.441 405.059 493.867 403.526 493.721 401.993C493.575 400.46 492.868 399.033 491.733 397.983V397.983Z" fill="#FFB8B8"/>
<path d="M414.82 368.37L414.634 368.648L437.837 383.823L476.989 396.235C477.508 396.401 477.954 396.74 478.249 397.195C478.545 397.65 478.672 398.192 478.61 398.73L477.756 406.033C477.718 406.357 477.613 406.668 477.447 406.949C477.28 407.229 477.057 407.472 476.79 407.662C476.524 407.851 476.22 407.983 475.9 408.05C475.579 408.116 475.247 408.115 474.927 408.047L438.079 400.206C436.296 399.828 434.609 399.091 433.125 398.04L407.058 379.628C406.113 378.956 405.359 378.054 404.869 377.008C404.379 375.962 404.171 374.808 404.263 373.658C404.359 372.506 404.755 371.399 405.412 370.446C406.069 369.492 406.965 368.725 408.011 368.22C409.058 367.714 410.219 367.488 411.38 367.563C412.541 367.638 413.663 368.012 414.635 368.648L414.82 368.37Z" fill="#CCCCCC"/>
<path d="M378.341 551.275C378.93 551.275 379.507 551.105 380.001 550.785C380.495 550.465 380.884 550.009 381.121 549.473L416.343 463.07C416.425 462.882 416.563 462.724 416.739 462.617C416.914 462.51 417.118 462.459 417.324 462.47C417.529 462.482 417.726 462.555 417.889 462.681C418.051 462.807 418.17 462.98 418.231 463.175L446.966 547.292C447.087 547.683 447.288 548.046 447.556 548.358C447.823 548.669 448.152 548.923 448.523 549.104C448.893 549.285 449.296 549.388 449.708 549.408C450.12 549.428 450.532 549.365 450.919 549.221L460.555 545.633C461.078 545.44 461.537 545.107 461.88 544.671C462.224 544.234 462.439 543.712 462.502 543.162C466.837 505.67 429.034 411.036 428.651 410.084L428.545 409.821L394.085 417.389L394.013 417.466C380.265 432.357 368.964 526.275 366.838 544.951C366.759 545.626 366.914 546.307 367.276 546.883C367.639 547.458 368.189 547.894 368.835 548.118L377.34 551.105C377.662 551.218 378 551.275 378.341 551.275Z" fill="#2F2E41"/>
<path d="M408.032 420.435C416.381 420.435 425.689 418.782 428.555 411.961L428.621 411.804L428.532 411.659C426.27 407.975 423.281 401.69 424.887 400.511C428.052 398.188 429.588 394.366 429.452 389.151C429.156 377.832 421.387 367.782 410.12 364.143H410.12C406.975 363.144 403.774 362.326 400.534 361.693C398.172 361.22 395.734 361.272 393.395 361.845C391.055 362.419 388.873 363.5 387.004 365.01C385.112 366.53 383.583 368.448 382.526 370.625C381.469 372.802 380.911 375.184 380.891 377.6C380.773 389.697 382.649 406.546 392.257 418.113C392.707 418.65 393.334 419.012 394.027 419.135C398.649 419.965 403.335 420.4 408.032 420.435Z" fill="#CCCCCC"/>
<path d="M411.138 419.982C410.683 418.363 409.604 416.989 408.134 416.156C406.665 415.324 404.924 415.1 403.289 415.535C402.956 415.628 402.63 415.748 402.316 415.893L391.573 406.186L384.101 411.184L399.465 424.682C400.159 425.924 401.251 426.899 402.568 427.454C403.884 428.008 405.35 428.11 406.732 427.742C407.537 427.523 408.29 427.148 408.948 426.639C409.606 426.13 410.155 425.496 410.565 424.774C410.975 424.052 411.236 423.257 411.335 422.435C411.433 421.612 411.366 420.778 411.138 419.982Z" fill="#FFB8B8"/>
<path d="M393.274 420.105C393.971 420.105 394.647 419.866 395.187 419.428L399.423 415.99C399.777 415.704 400.06 415.342 400.252 414.931C400.444 414.52 400.541 414.072 400.534 413.619C400.527 413.166 400.416 412.721 400.211 412.316C400.007 411.912 399.712 411.559 399.35 411.283L381.58 397.752C381.37 397.591 381.231 397.354 381.196 397.092C381.16 396.831 381.23 396.566 381.39 396.355L392.358 381.959C393.632 380.292 394.271 378.231 394.162 376.141C394.053 374.052 393.202 372.068 391.761 370.54C390.244 368.913 388.165 367.912 385.938 367.735C383.711 367.558 381.499 368.219 379.74 369.586L379.671 369.658L368.218 385.94C366.979 386.904 365.982 388.139 365.304 389.549C364.626 390.959 364.285 392.505 364.308 394.068C364.332 395.63 364.719 397.166 365.439 398.555C366.159 399.944 367.193 401.149 368.46 402.076L391.474 419.516C391.995 419.899 392.626 420.105 393.274 420.105Z" fill="#CCCCCC"/>
<path d="M416.572 337.053V328.922L401.951 322.583L388.01 328.922V337.053C388.01 337.406 388.152 337.746 388.404 337.996C388.656 338.246 388.998 338.387 389.354 338.387H415.228C415.584 338.387 415.926 338.246 416.178 337.996C416.43 337.746 416.572 337.406 416.572 337.053Z" fill="#2F2E41"/>
<path d="M402.622 317.615C404.772 310.784 400.257 302.955 393.583 300.251C386.908 297.547 378.923 299.437 373.291 303.904C367.659 308.372 364.165 315.063 362.314 321.98C360.462 328.896 360.111 336.109 359.769 343.258C351.569 344.753 345.99 354.409 348.831 362.192C351.672 369.974 362.186 373.84 369.448 369.773C376.709 365.705 378.812 354.771 373.572 348.333C371.092 345.287 369.707 341.506 369.635 337.59C369.564 333.674 370.811 329.846 373.178 326.713C375.546 323.58 378.898 321.32 382.705 320.292C386.512 319.264 390.555 319.527 394.195 321.038C398.237 322.716 403.308 318.356 402.622 317.615Z" fill="#2F2E41"/>
<path d="M494.765 366.443C504.583 366.379 514.278 364.271 523.224 360.255C523.757 360.019 524.209 359.635 524.525 359.148C524.842 358.662 525.009 358.095 525.007 357.516V333.218C525.006 332.422 524.687 331.659 524.12 331.096C523.553 330.533 522.784 330.217 521.982 330.216H467.547C466.745 330.217 465.976 330.533 465.41 331.096C464.843 331.659 464.524 332.422 464.523 333.218V357.516C464.52 358.095 464.687 358.662 465.004 359.148C465.32 359.635 465.772 360.019 466.305 360.255C475.251 364.271 484.947 366.379 494.765 366.443Z" fill="#B56AFF"/>
<path d="M494.772 346.758C495.176 346.759 495.575 346.679 495.947 346.524L539.114 328.443C539.671 328.21 540.144 327.816 540.474 327.313C540.803 326.811 540.973 326.221 540.962 325.622C540.951 325.022 540.759 324.439 540.411 323.949C540.064 323.458 539.576 323.082 539.011 322.87L495.844 306.611C495.149 306.348 494.38 306.35 493.686 306.616L451.097 322.874C450.535 323.089 450.051 323.465 449.706 323.954C449.36 324.443 449.17 325.024 449.159 325.621C449.148 326.218 449.316 326.806 449.643 327.307C449.97 327.809 450.44 328.202 450.993 328.437L493.583 346.518C493.959 346.677 494.363 346.759 494.772 346.758Z" fill="#B56AFF"/>
<path d="M519.966 361.908C517.739 361.908 515.934 360.115 515.934 357.905C515.934 355.694 517.739 353.901 519.966 353.901C522.193 353.901 523.999 355.694 523.999 357.905C523.999 360.115 522.193 361.908 519.966 361.908Z" fill="#3F3D56"/>
<path opacity="0.2" d="M450.846 325.871L493.436 343.951C493.768 344.092 494.125 344.165 494.486 344.166C494.847 344.167 495.205 344.096 495.537 343.956L538.704 325.876C539.246 325.654 539.698 325.26 539.989 324.754C540.18 325.082 540.298 325.446 540.335 325.823C540.373 326.199 540.33 326.579 540.208 326.938C540.087 327.296 539.89 327.625 539.63 327.902C539.371 328.179 539.055 328.398 538.704 328.545L495.537 346.625C495.205 346.765 494.847 346.836 494.486 346.835C494.125 346.834 493.768 346.761 493.436 346.62L450.846 328.54C450.497 328.392 450.183 328.172 449.925 327.895C449.668 327.617 449.473 327.289 449.352 326.931C449.232 326.574 449.189 326.195 449.227 325.819C449.266 325.444 449.383 325.081 449.573 324.754C449.862 325.256 450.31 325.648 450.846 325.871Z" fill="black"/>
<path d="M519.627 357.889C519.449 357.889 519.278 357.819 519.152 357.694C519.026 357.569 518.955 357.399 518.955 357.222V334.896L496.791 326.88C496.612 326.882 496.44 326.815 496.313 326.691C496.185 326.568 496.111 326.4 496.109 326.223C496.106 326.046 496.174 325.875 496.298 325.748C496.423 325.621 496.592 325.548 496.771 325.545L518.935 333.562C519.114 333.558 519.291 333.59 519.457 333.656C519.622 333.722 519.773 333.82 519.899 333.946C520.026 334.07 520.127 334.217 520.196 334.381C520.265 334.544 520.3 334.719 520.3 334.896V357.222C520.3 357.399 520.229 357.569 520.103 357.694C519.977 357.819 519.806 357.889 519.627 357.889Z" fill="#3F3D56"/>
</g>
<path d="M501 406.673L678 632.5L1074.5 226L1292.5 366" stroke="#ABABAB" stroke-width="3"/>
<circle cx="676" cy="633" r="13" fill="white" stroke="#B56AFF" stroke-width="4"/>
<circle cx="1293" cy="366" r="13" fill="white" stroke="#B56AFF" stroke-width="4"/>
<circle cx="1075" cy="226" r="13" fill="white" stroke="#B56AFF" stroke-width="4"/>
<path d="M662.66 685V671.035H668.617C671.273 671.035 672.602 672.119 672.602 674.287C672.602 675.876 671.736 677.012 670.004 677.695C671.853 678.04 672.777 679.098 672.777 680.869C672.777 683.623 671.322 685 668.412 685H662.66ZM668.305 683.535C669.971 683.535 670.805 682.689 670.805 680.996C670.805 679.349 669.688 678.525 667.455 678.525H666.674V677.344C669.343 676.986 670.678 676.022 670.678 674.453C670.678 673.151 669.936 672.5 668.451 672.5H664.467V683.535H668.305ZM677.455 674.746V685H675.648V674.746H677.455ZM677.455 671.035V672.744H675.648V671.035H677.455ZM687.475 676.836C686.745 676.484 685.912 676.309 684.975 676.309C682.911 676.309 681.879 677.406 681.879 679.6C681.879 682.197 682.911 683.496 684.975 683.496C685.912 683.496 686.745 683.369 687.475 683.115V676.836ZM689.281 684.385C688.038 684.795 686.505 685 684.682 685C681.628 685 680.102 683.223 680.102 679.668C680.102 676.387 681.723 674.746 684.965 674.746C685.85 674.746 686.687 674.909 687.475 675.234V671.035H689.281V684.385ZM690.99 674.746H692.953L695.854 682.754L698.852 674.746H700.766L696.508 685.303C695.753 687.165 694.62 688.327 693.109 688.789L692.416 687.51C693.562 687.008 694.395 686.191 694.916 685.059L690.99 674.746ZM701.977 681.904C701.977 679.801 703.363 678.75 706.137 678.75C707.029 678.75 707.921 678.815 708.812 678.945V677.979C708.812 676.8 707.891 676.211 706.049 676.211C704.994 676.211 703.913 676.374 702.807 676.699V675.234C703.913 674.909 704.994 674.746 706.049 674.746C709.096 674.746 710.619 675.807 710.619 677.93V685H709.604L708.979 683.984C707.956 684.661 706.843 685 705.639 685C703.197 685 701.977 683.968 701.977 681.904ZM706.137 680.215C704.568 680.215 703.783 680.768 703.783 681.875C703.783 682.982 704.402 683.535 705.639 683.535C706.889 683.535 707.947 683.203 708.812 682.539V680.41C707.921 680.28 707.029 680.215 706.137 680.215ZM718.637 685V671.035H724.594C727.25 671.035 728.578 672.119 728.578 674.287C728.578 675.876 727.712 677.012 725.98 677.695C727.829 678.04 728.754 679.098 728.754 680.869C728.754 683.623 727.299 685 724.389 685H718.637ZM724.281 683.535C725.948 683.535 726.781 682.689 726.781 680.996C726.781 679.349 725.665 678.525 723.432 678.525H722.65V677.344C725.32 676.986 726.654 676.022 726.654 674.453C726.654 673.151 725.912 672.5 724.428 672.5H720.443V683.535H724.281ZM731.43 685V671.035H733.236V675.859C734.109 675.117 735.173 674.746 736.43 674.746C738.988 674.746 740.268 676.019 740.268 678.564V685H738.461V678.535C738.461 677.012 737.702 676.25 736.186 676.25C735.15 676.25 734.167 676.683 733.236 677.549V685H731.43ZM742.719 681.904C742.719 679.801 744.105 678.75 746.879 678.75C747.771 678.75 748.663 678.815 749.555 678.945V677.979C749.555 676.8 748.633 676.211 746.791 676.211C745.736 676.211 744.656 676.374 743.549 676.699V675.234C744.656 674.909 745.736 674.746 746.791 674.746C749.838 674.746 751.361 675.807 751.361 677.93V685H750.346L749.721 683.984C748.699 684.661 747.585 685 746.381 685C743.939 685 742.719 683.968 742.719 681.904ZM746.879 680.215C745.31 680.215 744.525 680.768 744.525 681.875C744.525 682.982 745.144 683.535 746.381 683.535C747.631 683.535 748.689 683.203 749.555 682.539V680.41C748.663 680.28 747.771 680.215 746.879 680.215ZM754.301 685V674.746H755.521L755.844 676.055C756.742 675.182 757.823 674.746 759.086 674.746V676.25C757.862 676.25 756.869 676.683 756.107 677.549V685H754.301ZM760.414 681.904C760.414 679.801 761.801 678.75 764.574 678.75C765.466 678.75 766.358 678.815 767.25 678.945V677.979C767.25 676.8 766.329 676.211 764.486 676.211C763.432 676.211 762.351 676.374 761.244 676.699V675.234C762.351 674.909 763.432 674.746 764.486 674.746C767.533 674.746 769.057 675.807 769.057 677.93V685H768.041L767.416 683.984C766.394 684.661 765.281 685 764.076 685C761.635 685 760.414 683.968 760.414 681.904ZM764.574 680.215C763.005 680.215 762.221 680.768 762.221 681.875C762.221 682.982 762.839 683.535 764.076 683.535C765.326 683.535 766.384 683.203 767.25 682.539V680.41C766.358 680.28 765.466 680.215 764.574 680.215ZM771.996 673.086H773.129L773.52 674.746H776.293V676.211H773.803V682.1C773.803 683.057 774.216 683.535 775.043 683.535H776.293V685H774.574C772.855 685 771.996 684.079 771.996 682.236V673.086ZM780.6 674.746V685H778.793V674.746H780.6ZM780.6 671.035V672.744H778.793V671.035H780.6ZM788.617 684.512V682.852C790.082 683.372 791.664 683.633 793.363 683.633C795.766 683.633 796.967 682.754 796.967 680.996C796.967 679.499 796.081 678.75 794.311 678.75H792.514C789.59 678.75 788.129 677.48 788.129 674.941C788.129 672.272 790.001 670.938 793.744 670.938C795.372 670.938 796.885 671.133 798.285 671.523V673.184C796.885 672.663 795.372 672.402 793.744 672.402C791.205 672.402 789.936 673.249 789.936 674.941C789.936 676.439 790.795 677.188 792.514 677.188H794.311C797.286 677.188 798.773 678.457 798.773 680.996C798.773 683.73 796.97 685.098 793.363 685.098C791.664 685.098 790.082 684.902 788.617 684.512ZM808.93 684.707C808.083 684.902 807.172 685 806.195 685C802.549 685 800.727 683.226 800.727 679.678C800.727 676.39 802.549 674.746 806.195 674.746C807.172 674.746 808.083 674.844 808.93 675.039V676.504C808.083 676.309 807.139 676.211 806.098 676.211C803.721 676.211 802.533 677.367 802.533 679.678C802.533 682.249 803.721 683.535 806.098 683.535C807.139 683.535 808.083 683.438 808.93 683.242V684.707ZM811.234 685V671.035H813.041V675.859C813.913 675.117 814.978 674.746 816.234 674.746C818.793 674.746 820.072 676.019 820.072 678.564V685H818.266V678.535C818.266 677.012 817.507 676.25 815.99 676.25C814.955 676.25 813.972 676.683 813.041 677.549V685H811.234ZM824.33 679.834C824.33 682.301 825.355 683.535 827.406 683.535C829.457 683.535 830.482 682.301 830.482 679.834C830.482 677.419 829.457 676.211 827.406 676.211C825.355 676.211 824.33 677.419 824.33 679.834ZM822.523 679.873C822.523 676.455 824.151 674.746 827.406 674.746C830.661 674.746 832.289 676.455 832.289 679.873C832.289 683.285 830.661 684.99 827.406 684.99C824.164 684.99 822.536 683.285 822.523 679.873ZM836.049 679.834C836.049 682.301 837.074 683.535 839.125 683.535C841.176 683.535 842.201 682.301 842.201 679.834C842.201 677.419 841.176 676.211 839.125 676.211C837.074 676.211 836.049 677.419 836.049 679.834ZM834.242 679.873C834.242 676.455 835.87 674.746 839.125 674.746C842.38 674.746 844.008 676.455 844.008 679.873C844.008 683.285 842.38 684.99 839.125 684.99C835.883 684.99 834.255 683.285 834.242 679.873ZM848.354 671.035V685H846.547V671.035H848.354ZM854.662 671.035C853.36 673.978 852.709 676.924 852.709 679.873C852.709 682.822 853.36 685.768 854.662 688.711H852.855C851.553 685.768 850.902 682.822 850.902 679.873C850.902 676.924 851.553 673.978 852.855 671.035H854.662ZM856.234 685V683.535C861.41 679.974 863.998 677.142 863.998 675.039C863.998 673.281 862.891 672.402 860.678 672.402C859.245 672.402 857.895 672.76 856.625 673.477V671.914C857.895 671.263 859.245 670.938 860.678 670.938C864.096 670.938 865.805 672.305 865.805 675.039C865.805 677.448 863.477 680.28 858.822 683.535H865.805V685H856.234ZM869.818 677.979C869.818 681.748 871.195 683.633 873.949 683.633C876.632 683.633 877.973 681.748 877.973 677.979C877.973 674.261 876.632 672.402 873.949 672.402C871.195 672.402 869.818 674.261 869.818 677.979ZM867.914 678.037C867.914 673.304 869.926 670.938 873.949 670.938C877.901 670.938 879.877 673.304 879.877 678.037C879.877 682.744 877.901 685.098 873.949 685.098C869.926 685.098 867.914 682.744 867.914 678.037ZM883.402 685V672.783H881.938V671.914L885.209 670.938V685H883.402ZM888.246 679.629C888.246 676.009 890.388 673.005 894.672 670.615L895.609 671.855C893.253 673.001 891.579 674.561 890.59 676.533C891.443 676.188 892.471 676.016 893.676 676.016C897.022 676.016 898.695 677.48 898.695 680.41C898.695 683.535 896.928 685.098 893.393 685.098C889.962 685.098 888.246 683.275 888.246 679.629ZM889.955 679.57C889.955 682.279 891.13 683.633 893.48 683.633C895.779 683.633 896.928 682.559 896.928 680.41C896.928 678.457 895.814 677.48 893.588 677.48C892.195 677.48 891.075 677.637 890.229 677.949C890.046 678.34 889.955 678.88 889.955 679.57ZM902.357 671.035C903.66 673.978 904.311 676.924 904.311 679.873C904.311 682.822 903.66 685.768 902.357 688.711H900.551C901.853 685.768 902.504 682.822 902.504 679.873C902.504 676.924 901.853 673.978 900.551 671.035H902.357Z" fill="white"/>
<path d="M943.66 165V151.035H949.617C952.273 151.035 953.602 152.119 953.602 154.287C953.602 155.876 952.736 157.012 951.004 157.695C952.853 158.04 953.777 159.098 953.777 160.869C953.777 163.623 952.322 165 949.412 165H943.66ZM949.305 163.535C950.971 163.535 951.805 162.689 951.805 160.996C951.805 159.349 950.688 158.525 948.455 158.525H947.674V157.344C950.343 156.986 951.678 156.022 951.678 154.453C951.678 153.151 950.936 152.5 949.451 152.5H945.467V163.535H949.305ZM958.455 154.746V165H956.648V154.746H958.455ZM958.455 151.035V152.744H956.648V151.035H958.455ZM968.475 156.836C967.745 156.484 966.912 156.309 965.975 156.309C963.911 156.309 962.879 157.406 962.879 159.6C962.879 162.197 963.911 163.496 965.975 163.496C966.912 163.496 967.745 163.369 968.475 163.115V156.836ZM970.281 164.385C969.038 164.795 967.505 165 965.682 165C962.628 165 961.102 163.223 961.102 159.668C961.102 156.387 962.723 154.746 965.965 154.746C966.85 154.746 967.687 154.909 968.475 155.234V151.035H970.281V164.385ZM971.99 154.746H973.953L976.854 162.754L979.852 154.746H981.766L977.508 165.303C976.753 167.165 975.62 168.327 974.109 168.789L973.416 167.51C974.562 167.008 975.395 166.191 975.916 165.059L971.99 154.746ZM982.977 161.904C982.977 159.801 984.363 158.75 987.137 158.75C988.029 158.75 988.921 158.815 989.812 158.945V157.979C989.812 156.8 988.891 156.211 987.049 156.211C985.994 156.211 984.913 156.374 983.807 156.699V155.234C984.913 154.909 985.994 154.746 987.049 154.746C990.096 154.746 991.619 155.807 991.619 157.93V165H990.604L989.979 163.984C988.956 164.661 987.843 165 986.639 165C984.197 165 982.977 163.968 982.977 161.904ZM987.137 160.215C985.568 160.215 984.783 160.768 984.783 161.875C984.783 162.982 985.402 163.535 986.639 163.535C987.889 163.535 988.947 163.203 989.812 162.539V160.41C988.921 160.28 988.029 160.215 987.137 160.215ZM999.637 165V151.035H1005.59C1008.25 151.035 1009.58 152.119 1009.58 154.287C1009.58 155.876 1008.71 157.012 1006.98 157.695C1008.83 158.04 1009.75 159.098 1009.75 160.869C1009.75 163.623 1008.3 165 1005.39 165H999.637ZM1005.28 163.535C1006.95 163.535 1007.78 162.689 1007.78 160.996C1007.78 159.349 1006.66 158.525 1004.43 158.525H1003.65V157.344C1006.32 156.986 1007.65 156.022 1007.65 154.453C1007.65 153.151 1006.91 152.5 1005.43 152.5H1001.44V163.535H1005.28ZM1012.43 165V151.035H1014.24V155.859C1015.11 155.117 1016.17 154.746 1017.43 154.746C1019.99 154.746 1021.27 156.019 1021.27 158.564V165H1019.46V158.535C1019.46 157.012 1018.7 156.25 1017.19 156.25C1016.15 156.25 1015.17 156.683 1014.24 157.549V165H1012.43ZM1023.72 161.904C1023.72 159.801 1025.11 158.75 1027.88 158.75C1028.77 158.75 1029.66 158.815 1030.55 158.945V157.979C1030.55 156.8 1029.63 156.211 1027.79 156.211C1026.74 156.211 1025.66 156.374 1024.55 156.699V155.234C1025.66 154.909 1026.74 154.746 1027.79 154.746C1030.84 154.746 1032.36 155.807 1032.36 157.93V165H1031.35L1030.72 163.984C1029.7 164.661 1028.59 165 1027.38 165C1024.94 165 1023.72 163.968 1023.72 161.904ZM1027.88 160.215C1026.31 160.215 1025.53 160.768 1025.53 161.875C1025.53 162.982 1026.14 163.535 1027.38 163.535C1028.63 163.535 1029.69 163.203 1030.55 162.539V160.41C1029.66 160.28 1028.77 160.215 1027.88 160.215ZM1035.3 165V154.746H1036.52L1036.84 156.055C1037.74 155.182 1038.82 154.746 1040.09 154.746V156.25C1038.86 156.25 1037.87 156.683 1037.11 157.549V165H1035.3ZM1041.41 161.904C1041.41 159.801 1042.8 158.75 1045.57 158.75C1046.47 158.75 1047.36 158.815 1048.25 158.945V157.979C1048.25 156.8 1047.33 156.211 1045.49 156.211C1044.43 156.211 1043.35 156.374 1042.24 156.699V155.234C1043.35 154.909 1044.43 154.746 1045.49 154.746C1048.53 154.746 1050.06 155.807 1050.06 157.93V165H1049.04L1048.42 163.984C1047.39 164.661 1046.28 165 1045.08 165C1042.63 165 1041.41 163.968 1041.41 161.904ZM1045.57 160.215C1044.01 160.215 1043.22 160.768 1043.22 161.875C1043.22 162.982 1043.84 163.535 1045.08 163.535C1046.33 163.535 1047.38 163.203 1048.25 162.539V160.41C1047.36 160.28 1046.47 160.215 1045.57 160.215ZM1053 153.086H1054.13L1054.52 154.746H1057.29V156.211H1054.8V162.1C1054.8 163.057 1055.22 163.535 1056.04 163.535H1057.29V165H1055.57C1053.86 165 1053 164.079 1053 162.236V153.086ZM1061.6 154.746V165H1059.79V154.746H1061.6ZM1061.6 151.035V152.744H1059.79V151.035H1061.6ZM1080.36 164.453C1079.23 164.883 1078.02 165.098 1076.72 165.098C1071.66 165.098 1069.13 162.673 1069.13 157.822C1069.13 153.232 1071.57 150.938 1076.45 150.938C1077.85 150.938 1079.15 151.133 1080.36 151.523V153.086C1079.15 152.63 1077.92 152.402 1076.65 152.402C1072.84 152.402 1070.94 154.209 1070.94 157.822C1070.94 161.696 1072.81 163.633 1076.56 163.633C1077.16 163.633 1077.82 163.555 1078.55 163.398V158.652H1080.36V164.453ZM1085.15 154.746V165H1083.35V154.746H1085.15ZM1085.15 151.035V152.744H1083.35V151.035H1085.15ZM1088.29 165V154.746H1089.51L1089.83 156.055C1090.73 155.182 1091.81 154.746 1093.07 154.746V156.25C1091.85 156.25 1090.86 156.683 1090.1 157.549V165H1088.29ZM1096.79 151.035V165H1094.99V151.035H1096.79ZM1099.73 164.512V162.949C1100.94 163.34 1102.16 163.535 1103.39 163.535C1105.02 163.535 1105.84 163.047 1105.84 162.07C1105.84 161.159 1105.27 160.703 1104.13 160.703H1102.66C1100.45 160.703 1099.34 159.694 1099.34 157.676C1099.34 155.723 1100.77 154.746 1103.61 154.746C1104.84 154.746 1106.05 154.909 1107.25 155.234V156.797C1106.05 156.406 1104.84 156.211 1103.61 156.211C1101.91 156.211 1101.05 156.699 1101.05 157.676C1101.05 158.587 1101.59 159.043 1102.66 159.043H1104.13C1106.47 159.043 1107.64 160.052 1107.64 162.07C1107.64 164.023 1106.23 165 1103.39 165C1102.16 165 1100.94 164.837 1099.73 164.512ZM1115.16 165V151.035H1116.97V157.188H1125.22V151.035H1127.03V165H1125.22V158.652H1116.97V165H1115.16ZM1132.17 154.746V165H1130.36V154.746H1132.17ZM1132.17 151.035V152.744H1130.36V151.035H1132.17ZM1142.16 156.484C1141.54 156.328 1140.77 156.25 1139.86 156.25C1137.68 156.25 1136.59 157.432 1136.59 159.795C1136.59 162.223 1137.62 163.438 1139.69 163.438C1140.62 163.438 1141.45 163.262 1142.16 162.91V156.484ZM1143.96 165C1143.96 167.474 1142.39 168.711 1139.25 168.711C1137.98 168.711 1136.86 168.548 1135.89 168.223V166.758C1136.88 167.083 1138.01 167.246 1139.27 167.246C1141.19 167.246 1142.16 166.497 1142.16 165V164.512C1141.39 164.837 1140.56 165 1139.68 165C1136.43 165 1134.81 163.271 1134.81 159.814C1134.81 156.436 1136.52 154.746 1139.94 154.746C1141.33 154.746 1142.67 154.886 1143.96 155.166V165ZM1146.9 165V151.035H1148.71V155.859C1149.58 155.117 1150.65 154.746 1151.9 154.746C1154.46 154.746 1155.74 156.019 1155.74 158.564V165H1153.93V158.535C1153.93 157.012 1153.18 156.25 1151.66 156.25C1150.62 156.25 1149.64 156.683 1148.71 157.549V165H1146.9ZM943.465 186.512V184.852C944.93 185.372 946.512 185.633 948.211 185.633C950.613 185.633 951.814 184.754 951.814 182.996C951.814 181.499 950.929 180.75 949.158 180.75H947.361C944.438 180.75 942.977 179.48 942.977 176.941C942.977 174.272 944.848 172.938 948.592 172.938C950.219 172.938 951.733 173.133 953.133 173.523V175.184C951.733 174.663 950.219 174.402 948.592 174.402C946.053 174.402 944.783 175.249 944.783 176.941C944.783 178.439 945.643 179.188 947.361 179.188H949.158C952.133 179.188 953.621 180.457 953.621 182.996C953.621 185.73 951.818 187.098 948.211 187.098C946.512 187.098 944.93 186.902 943.465 186.512ZM963.777 186.707C962.931 186.902 962.02 187 961.043 187C957.397 187 955.574 185.226 955.574 181.678C955.574 178.39 957.397 176.746 961.043 176.746C962.02 176.746 962.931 176.844 963.777 177.039V178.504C962.931 178.309 961.987 178.211 960.945 178.211C958.569 178.211 957.381 179.367 957.381 181.678C957.381 184.249 958.569 185.535 960.945 185.535C961.987 185.535 962.931 185.438 963.777 185.242V186.707ZM966.082 187V173.035H967.889V177.859C968.761 177.117 969.826 176.746 971.082 176.746C973.641 176.746 974.92 178.019 974.92 180.564V187H973.113V180.535C973.113 179.012 972.355 178.25 970.838 178.25C969.803 178.25 968.82 178.683 967.889 179.549V187H966.082ZM979.178 181.834C979.178 184.301 980.203 185.535 982.254 185.535C984.305 185.535 985.33 184.301 985.33 181.834C985.33 179.419 984.305 178.211 982.254 178.211C980.203 178.211 979.178 179.419 979.178 181.834ZM977.371 181.873C977.371 178.455 978.999 176.746 982.254 176.746C985.509 176.746 987.137 178.455 987.137 181.873C987.137 185.285 985.509 186.99 982.254 186.99C979.012 186.99 977.384 185.285 977.371 181.873ZM990.896 181.834C990.896 184.301 991.922 185.535 993.973 185.535C996.023 185.535 997.049 184.301 997.049 181.834C997.049 179.419 996.023 178.211 993.973 178.211C991.922 178.211 990.896 179.419 990.896 181.834ZM989.09 181.873C989.09 178.455 990.717 176.746 993.973 176.746C997.228 176.746 998.855 178.455 998.855 181.873C998.855 185.285 997.228 186.99 993.973 186.99C990.73 186.99 989.103 185.285 989.09 181.873ZM1003.2 173.035V187H1001.39V173.035H1003.2ZM1009.51 173.035C1008.21 175.978 1007.56 178.924 1007.56 181.873C1007.56 184.822 1008.21 187.768 1009.51 190.711H1007.7C1006.4 187.768 1005.75 184.822 1005.75 181.873C1005.75 178.924 1006.4 175.978 1007.7 173.035H1009.51ZM1011.08 187V185.535C1016.26 181.974 1018.85 179.142 1018.85 177.039C1018.85 175.281 1017.74 174.402 1015.53 174.402C1014.09 174.402 1012.74 174.76 1011.47 175.477V173.914C1012.74 173.263 1014.09 172.938 1015.53 172.938C1018.94 172.938 1020.65 174.305 1020.65 177.039C1020.65 179.448 1018.32 182.28 1013.67 185.535H1020.65V187H1011.08ZM1024.67 179.979C1024.67 183.748 1026.04 185.633 1028.8 185.633C1031.48 185.633 1032.82 183.748 1032.82 179.979C1032.82 176.261 1031.48 174.402 1028.8 174.402C1026.04 174.402 1024.67 176.261 1024.67 179.979ZM1022.76 180.037C1022.76 175.304 1024.77 172.938 1028.8 172.938C1032.75 172.938 1034.72 175.304 1034.72 180.037C1034.72 184.744 1032.75 187.098 1028.8 187.098C1024.77 187.098 1022.76 184.744 1022.76 180.037ZM1038.25 187V174.783H1036.79V173.914L1040.06 172.938V187H1038.25ZM1043.09 182.859C1043.09 181.408 1043.78 180.363 1045.16 179.725C1044.04 179.041 1043.48 177.957 1043.48 176.473C1043.48 174.09 1045.05 172.898 1048.17 172.898C1051.3 172.898 1052.86 174.09 1052.86 176.473C1052.86 177.957 1052.28 179.041 1051.13 179.725C1052.54 180.363 1053.25 181.408 1053.25 182.859C1053.25 185.685 1051.56 187.098 1048.17 187.098C1044.79 187.098 1043.09 185.685 1043.09 182.859ZM1048.22 178.992C1050.11 178.992 1051.05 178.217 1051.05 176.668C1051.05 175.158 1050.07 174.402 1048.09 174.402C1046.23 174.402 1045.29 175.158 1045.29 176.668C1045.29 178.217 1046.27 178.992 1048.22 178.992ZM1048.22 185.633C1050.37 185.633 1051.44 184.728 1051.44 182.918C1051.44 181.277 1050.33 180.457 1048.09 180.457C1045.96 180.457 1044.9 181.277 1044.9 182.918C1044.9 184.728 1046.01 185.633 1048.22 185.633ZM1057.01 173.035C1058.31 175.978 1058.96 178.924 1058.96 181.873C1058.96 184.822 1058.31 187.768 1057.01 190.711H1055.2C1056.51 187.768 1057.16 184.822 1057.16 181.873C1057.16 178.924 1056.51 175.978 1055.2 173.035H1057.01Z" fill="white"/>
<path d="M1087.21 410.512C1086 410.902 1084.7 411.098 1083.3 411.098C1078.42 411.098 1075.98 408.673 1075.98 403.822C1075.98 399.232 1078.42 396.938 1083.3 396.938C1084.7 396.938 1086 397.133 1087.21 397.523V399.086C1086 398.63 1084.77 398.402 1083.5 398.402C1079.69 398.402 1077.78 400.209 1077.78 403.822C1077.78 407.696 1079.69 409.633 1083.5 409.633C1084.77 409.633 1086 409.405 1087.21 408.949V410.512ZM1089.51 407.904C1089.51 405.801 1090.9 404.75 1093.67 404.75C1094.56 404.75 1095.46 404.815 1096.35 404.945V403.979C1096.35 402.8 1095.43 402.211 1093.58 402.211C1092.53 402.211 1091.45 402.374 1090.34 402.699V401.234C1091.45 400.909 1092.53 400.746 1093.58 400.746C1096.63 400.746 1098.15 401.807 1098.15 403.93V411H1097.14L1096.51 409.984C1095.49 410.661 1094.38 411 1093.17 411C1090.73 411 1089.51 409.968 1089.51 407.904ZM1093.67 406.215C1092.1 406.215 1091.32 406.768 1091.32 407.875C1091.32 408.982 1091.94 409.535 1093.17 409.535C1094.42 409.535 1095.48 409.203 1096.35 408.539V406.41C1095.46 406.28 1094.56 406.215 1093.67 406.215ZM1103 397.035V411H1101.19V397.035H1103ZM1113.75 410.707C1112.9 410.902 1111.99 411 1111.02 411C1107.37 411 1105.55 409.226 1105.55 405.678C1105.55 402.39 1107.37 400.746 1111.02 400.746C1111.99 400.746 1112.9 400.844 1113.75 401.039V402.504C1112.9 402.309 1111.96 402.211 1110.92 402.211C1108.54 402.211 1107.35 403.367 1107.35 405.678C1107.35 408.249 1108.54 409.535 1110.92 409.535C1111.96 409.535 1112.9 409.438 1113.75 409.242V410.707ZM1124.89 400.746V411H1123.65L1123.34 409.691C1122.1 410.564 1120.85 411 1119.59 411C1117.23 411 1116.05 409.727 1116.05 407.182V400.746H1117.86V407.211C1117.86 408.734 1118.62 409.496 1120.13 409.496C1121.16 409.496 1122.15 409.063 1123.09 408.197V400.746H1124.89ZM1127.83 399.086H1128.96L1129.36 400.746H1132.13V402.211H1129.64V408.1C1129.64 409.057 1130.05 409.535 1130.88 409.535H1132.13V411H1130.41C1128.69 411 1127.83 410.079 1127.83 408.236V399.086ZM1134.43 399.086H1135.57L1135.96 400.746H1138.73V402.211H1136.24V408.1C1136.24 409.057 1136.65 409.535 1137.48 409.535H1138.73V411H1137.01C1135.29 411 1134.43 410.079 1134.43 408.236V399.086ZM1140.55 407.904C1140.55 405.801 1141.93 404.75 1144.71 404.75C1145.6 404.75 1146.49 404.815 1147.38 404.945V403.979C1147.38 402.8 1146.46 402.211 1144.62 402.211C1143.56 402.211 1142.48 402.374 1141.38 402.699V401.234C1142.48 400.909 1143.56 400.746 1144.62 400.746C1147.67 400.746 1149.19 401.807 1149.19 403.93V411H1148.17L1147.55 409.984C1146.53 410.661 1145.41 411 1144.21 411C1141.77 411 1140.55 409.968 1140.55 407.904ZM1144.71 406.215C1143.14 406.215 1142.35 406.768 1142.35 407.875C1142.35 408.982 1142.97 409.535 1144.21 409.535C1145.46 409.535 1146.52 409.203 1147.38 408.539V406.41C1146.49 406.28 1145.6 406.215 1144.71 406.215ZM1159.31 397.035V411H1157.5V397.035H1159.31ZM1162.73 411V400.746H1163.96L1164.28 402.055C1165.33 401.182 1166.48 400.746 1167.73 400.746C1170.29 400.746 1171.57 402.019 1171.57 404.564V411H1169.77V404.535C1169.77 403.012 1169.01 402.25 1167.49 402.25C1166.46 402.25 1165.47 402.683 1164.54 403.549V411H1162.73ZM1174.41 410.512V408.949C1175.62 409.34 1176.84 409.535 1178.07 409.535C1179.7 409.535 1180.52 409.047 1180.52 408.07C1180.52 407.159 1179.95 406.703 1178.81 406.703H1177.34C1175.13 406.703 1174.02 405.694 1174.02 403.676C1174.02 401.723 1175.45 400.746 1178.29 400.746C1179.51 400.746 1180.73 400.909 1181.93 401.234V402.797C1180.73 402.406 1179.51 402.211 1178.29 402.211C1176.59 402.211 1175.73 402.699 1175.73 403.676C1175.73 404.587 1176.27 405.043 1177.34 405.043H1178.81C1181.15 405.043 1182.32 406.052 1182.32 408.07C1182.32 410.023 1180.9 411 1178.07 411C1176.84 411 1175.62 410.837 1174.41 410.512ZM1184.77 399.086H1185.9L1186.29 400.746H1189.06V402.211H1186.57V408.1C1186.57 409.057 1186.99 409.535 1187.81 409.535H1189.06V411H1187.34C1185.62 411 1184.77 410.079 1184.77 408.236V399.086ZM1193.37 400.746V411H1191.56V400.746H1193.37ZM1193.37 397.035V398.744H1191.56V397.035H1193.37ZM1196.5 399.086H1197.64L1198.03 400.746H1200.8V402.211H1198.31V408.1C1198.31 409.057 1198.72 409.535 1199.55 409.535H1200.8V411H1199.08C1197.36 411 1196.5 410.079 1196.5 408.236V399.086ZM1211.94 400.746V411H1210.7L1210.39 409.691C1209.15 410.564 1207.9 411 1206.64 411C1204.28 411 1203.11 409.727 1203.11 407.182V400.746H1204.91V407.211C1204.91 408.734 1205.67 409.496 1207.18 409.496C1208.21 409.496 1209.2 409.063 1210.14 408.197V400.746H1211.94ZM1219.11 400.746C1222.03 400.746 1223.49 402.188 1223.49 405.072C1223.49 405.482 1223.46 405.922 1223.4 406.391H1216.2C1216.2 408.487 1217.43 409.535 1219.87 409.535C1221.04 409.535 1222.07 409.405 1222.98 409.145V410.609C1222.07 410.87 1220.97 411 1219.68 411C1216.16 411 1214.39 409.252 1214.39 405.756C1214.39 402.416 1215.97 400.746 1219.11 400.746ZM1216.2 404.887H1221.75C1221.71 403.09 1220.83 402.191 1219.11 402.191C1217.29 402.191 1216.32 403.09 1216.2 404.887ZM1232.41 403.979C1232.41 407.748 1234.11 409.633 1237.52 409.633C1240.85 409.633 1242.52 407.748 1242.52 403.979C1242.52 400.261 1240.85 398.402 1237.52 398.402C1234.11 398.402 1232.41 400.261 1232.41 403.979ZM1230.51 404.037C1230.51 399.304 1232.85 396.938 1237.52 396.938C1242.12 396.938 1244.42 399.304 1244.42 404.037C1244.42 408.744 1242.12 411.098 1237.52 411.098C1232.85 411.098 1230.51 408.744 1230.51 404.037ZM1247.07 411V400.248C1247.07 397.768 1248.48 396.527 1251.29 396.527C1252.06 396.527 1252.79 396.658 1253.48 396.918V398.383C1252.83 398.122 1252.1 397.992 1251.28 397.992C1249.68 397.992 1248.88 398.718 1248.88 400.17V400.746H1252.05V402.211H1248.88V411H1247.07ZM1268.23 397.035V398.5H1260.91V403.188H1267.89V404.652H1260.91V409.535H1268.38V411H1259.1V397.035H1268.23ZM1270.92 411V400.746H1272.14L1272.46 402.055C1273.51 401.182 1274.66 400.746 1275.92 400.746C1278.48 400.746 1279.76 402.019 1279.76 404.564V411H1277.95V404.535C1277.95 403.012 1277.19 402.25 1275.67 402.25C1274.64 402.25 1273.66 402.683 1272.72 403.549V411H1270.92ZM1289.55 402.484C1288.93 402.328 1288.17 402.25 1287.26 402.25C1285.07 402.25 1283.98 403.432 1283.98 405.795C1283.98 408.223 1285.02 409.438 1287.08 409.438C1288.02 409.438 1288.84 409.262 1289.55 408.91V402.484ZM1291.36 411C1291.36 413.474 1289.79 414.711 1286.64 414.711C1285.38 414.711 1284.26 414.548 1283.28 414.223V412.758C1284.28 413.083 1285.4 413.246 1286.66 413.246C1288.59 413.246 1289.55 412.497 1289.55 411V410.512C1288.78 410.837 1287.96 411 1287.07 411C1283.83 411 1282.21 409.271 1282.21 405.814C1282.21 402.436 1283.92 400.746 1287.33 400.746C1288.72 400.746 1290.06 400.886 1291.36 401.166V411ZM1296.3 400.746V411H1294.49V400.746H1296.3ZM1296.3 397.035V398.744H1294.49V397.035H1296.3ZM1299.43 411V400.746H1300.65L1300.98 402.055C1302.02 401.182 1303.18 400.746 1304.43 400.746C1306.99 400.746 1308.27 402.019 1308.27 404.564V411H1306.46V404.535C1306.46 403.012 1305.71 402.25 1304.19 402.25C1303.15 402.25 1302.17 402.683 1301.24 403.549V411H1299.43ZM1315.44 400.746C1318.36 400.746 1319.81 402.188 1319.81 405.072C1319.81 405.482 1319.79 405.922 1319.73 406.391H1312.53C1312.53 408.487 1313.75 409.535 1316.2 409.535C1317.37 409.535 1318.4 409.405 1319.31 409.145V410.609C1318.4 410.87 1317.3 411 1316.01 411C1312.48 411 1310.72 409.252 1310.72 405.756C1310.72 402.416 1312.29 400.746 1315.44 400.746ZM1312.53 404.887H1318.08C1318.04 403.09 1317.16 402.191 1315.44 402.191C1313.62 402.191 1312.65 403.09 1312.53 404.887ZM1326.47 400.746C1329.39 400.746 1330.85 402.188 1330.85 405.072C1330.85 405.482 1330.82 405.922 1330.76 406.391H1323.56C1323.56 408.487 1324.79 409.535 1327.24 409.535C1328.4 409.535 1329.44 409.405 1330.34 409.145V410.609C1329.44 410.87 1328.34 411 1327.04 411C1323.52 411 1321.76 409.252 1321.76 405.756C1321.76 402.416 1323.33 400.746 1326.47 400.746ZM1323.56 404.887H1329.11C1329.07 403.09 1328.19 402.191 1326.47 402.191C1324.65 402.191 1323.68 403.09 1323.56 404.887ZM1333.28 411V400.746H1334.5L1334.82 402.055C1335.72 401.182 1336.8 400.746 1338.07 400.746V402.25C1336.84 402.25 1335.85 402.683 1335.09 403.549V411H1333.28ZM1341.88 400.746V411H1340.08V400.746H1341.88ZM1341.88 397.035V398.744H1340.08V397.035H1341.88ZM1345.02 411V400.746H1346.24L1346.56 402.055C1347.61 401.182 1348.76 400.746 1350.02 400.746C1352.58 400.746 1353.86 402.019 1353.86 404.564V411H1352.05V404.535C1352.05 403.012 1351.29 402.25 1349.78 402.25C1348.74 402.25 1347.76 402.683 1346.83 403.549V411H1345.02ZM1363.65 402.484C1363.03 402.328 1362.27 402.25 1361.36 402.25C1359.18 402.25 1358.09 403.432 1358.09 405.795C1358.09 408.223 1359.12 409.438 1361.18 409.438C1362.12 409.438 1362.94 409.262 1363.65 408.91V402.484ZM1365.46 411C1365.46 413.474 1363.89 414.711 1360.74 414.711C1359.48 414.711 1358.36 414.548 1357.38 414.223V412.758C1358.38 413.083 1359.51 413.246 1360.76 413.246C1362.69 413.246 1363.65 412.497 1363.65 411V410.512C1362.88 410.837 1362.06 411 1361.17 411C1357.93 411 1356.31 409.271 1356.31 405.814C1356.31 402.436 1358.02 400.746 1361.44 400.746C1362.82 400.746 1364.16 400.886 1365.46 401.166V411ZM1373.94 411H1372.06L1377.99 397.035H1379.99L1385.95 411H1383.95L1382.14 406.605H1377.52L1378.02 405.141H1381.53L1378.93 398.812L1373.94 411ZM1387.66 411V400.746H1388.88L1389.2 402.055C1390.25 401.182 1391.4 400.746 1392.66 400.746C1395.21 400.746 1396.49 402.019 1396.49 404.564V411H1394.69V404.535C1394.69 403.012 1393.93 402.25 1392.41 402.25C1391.38 402.25 1390.39 402.683 1389.46 403.549V411H1387.66ZM1406.32 402.836C1405.59 402.484 1404.76 402.309 1403.82 402.309C1401.75 402.309 1400.72 403.406 1400.72 405.6C1400.72 408.197 1401.75 409.496 1403.82 409.496C1404.76 409.496 1405.59 409.369 1406.32 409.115V402.836ZM1408.12 410.385C1406.88 410.795 1405.35 411 1403.53 411C1400.47 411 1398.95 409.223 1398.95 405.668C1398.95 402.387 1400.57 400.746 1403.81 400.746C1404.69 400.746 1405.53 400.909 1406.32 401.234V397.035H1408.12V410.385ZM1076.66 433V419.035H1078.96L1084.08 430.686L1089.11 419.035H1091.31V433H1089.7V421.545L1084.74 433H1083.31L1078.27 421.545V433H1076.66ZM1093.95 429.904C1093.95 427.801 1095.33 426.75 1098.11 426.75C1099 426.75 1099.89 426.815 1100.78 426.945V425.979C1100.78 424.8 1099.86 424.211 1098.02 424.211C1096.96 424.211 1095.88 424.374 1094.78 424.699V423.234C1095.88 422.909 1096.96 422.746 1098.02 422.746C1101.06 422.746 1102.59 423.807 1102.59 425.93V433H1101.57L1100.95 431.984C1099.93 432.661 1098.81 433 1097.61 433C1095.17 433 1093.95 431.968 1093.95 429.904ZM1098.11 428.215C1096.54 428.215 1095.75 428.768 1095.75 429.875C1095.75 430.982 1096.37 431.535 1097.61 431.535C1098.86 431.535 1099.92 431.203 1100.78 430.539V428.41C1099.89 428.28 1099 428.215 1098.11 428.215ZM1105.53 433V422.746H1106.75L1107.07 424.055C1108.12 423.182 1109.27 422.746 1110.53 422.746C1113.09 422.746 1114.37 424.019 1114.37 426.564V433H1112.56V426.535C1112.56 425.012 1111.8 424.25 1110.28 424.25C1109.25 424.25 1108.26 424.683 1107.33 425.549V433H1105.53ZM1116.82 429.904C1116.82 427.801 1118.2 426.75 1120.98 426.75C1121.87 426.75 1122.76 426.815 1123.65 426.945V425.979C1123.65 424.8 1122.73 424.211 1120.89 424.211C1119.83 424.211 1118.75 424.374 1117.65 424.699V423.234C1118.75 422.909 1119.83 422.746 1120.89 422.746C1123.94 422.746 1125.46 423.807 1125.46 425.93V433H1124.44L1123.82 431.984C1122.8 432.661 1121.68 433 1120.48 433C1118.04 433 1116.82 431.968 1116.82 429.904ZM1120.98 428.215C1119.41 428.215 1118.62 428.768 1118.62 429.875C1118.62 430.982 1119.24 431.535 1120.48 431.535C1121.73 431.535 1122.79 431.203 1123.65 430.539V428.41C1122.76 428.28 1121.87 428.215 1120.98 428.215ZM1135.25 424.484C1134.64 424.328 1133.87 424.25 1132.96 424.25C1130.78 424.25 1129.69 425.432 1129.69 427.795C1129.69 430.223 1130.72 431.438 1132.78 431.438C1133.72 431.438 1134.54 431.262 1135.25 430.91V424.484ZM1137.06 433C1137.06 435.474 1135.49 436.711 1132.34 436.711C1131.08 436.711 1129.96 436.548 1128.98 436.223V434.758C1129.98 435.083 1131.11 435.246 1132.36 435.246C1134.29 435.246 1135.25 434.497 1135.25 433V432.512C1134.49 432.837 1133.66 433 1132.77 433C1129.53 433 1127.91 431.271 1127.91 427.814C1127.91 424.436 1129.62 422.746 1133.04 422.746C1134.42 422.746 1135.76 422.886 1137.06 423.166V433ZM1144.23 422.746C1147.15 422.746 1148.6 424.188 1148.6 427.072C1148.6 427.482 1148.57 427.922 1148.52 428.391H1141.32C1141.32 430.487 1142.54 431.535 1144.99 431.535C1146.16 431.535 1147.19 431.405 1148.1 431.145V432.609C1147.19 432.87 1146.09 433 1144.79 433C1141.27 433 1139.51 431.252 1139.51 427.756C1139.51 424.416 1141.08 422.746 1144.23 422.746ZM1141.32 426.887H1146.87C1146.83 425.09 1145.95 424.191 1144.23 424.191C1142.41 424.191 1141.44 425.09 1141.32 426.887ZM1151.04 433V422.746H1152.26L1152.56 424.035C1153.54 423.176 1154.61 422.746 1155.77 422.746C1157.26 422.746 1158.27 423.215 1158.81 424.152C1159.92 423.215 1161.05 422.746 1162.2 422.746C1164.55 422.746 1165.73 424.045 1165.73 426.643V433H1163.93V426.545C1163.93 425.015 1163.28 424.25 1161.99 424.25C1161.03 424.25 1160.13 424.693 1159.29 425.578V433H1157.48V426.574C1157.48 425.025 1156.84 424.25 1155.57 424.25C1154.55 424.25 1153.64 424.693 1152.84 425.578V433H1151.04ZM1172.9 422.746C1175.82 422.746 1177.28 424.188 1177.28 427.072C1177.28 427.482 1177.25 427.922 1177.19 428.391H1169.99C1169.99 430.487 1171.21 431.535 1173.66 431.535C1174.83 431.535 1175.86 431.405 1176.77 431.145V432.609C1175.86 432.87 1174.76 433 1173.47 433C1169.94 433 1168.18 431.252 1168.18 427.756C1168.18 424.416 1169.76 422.746 1172.9 422.746ZM1169.99 426.887H1175.54C1175.5 425.09 1174.62 424.191 1172.9 424.191C1171.08 424.191 1170.11 425.09 1169.99 426.887ZM1179.71 433V422.746H1180.93L1181.25 424.055C1182.3 423.182 1183.45 422.746 1184.71 422.746C1187.27 422.746 1188.54 424.019 1188.54 426.564V433H1186.74V426.535C1186.74 425.012 1185.98 424.25 1184.46 424.25C1183.43 424.25 1182.44 424.683 1181.51 425.549V433H1179.71ZM1191.48 421.086H1192.62L1193.01 422.746H1195.78V424.211H1193.29V430.1C1193.29 431.057 1193.7 431.535 1194.53 431.535H1195.78V433H1194.06C1192.34 433 1191.48 432.079 1191.48 430.236V421.086ZM1201.36 419.035C1200.06 421.978 1199.4 424.924 1199.4 427.873C1199.4 430.822 1200.06 433.768 1201.36 436.711H1199.55C1198.25 433.768 1197.6 430.822 1197.6 427.873C1197.6 424.924 1198.25 421.978 1199.55 419.035H1201.36ZM1202.93 433V431.535C1208.11 427.974 1210.69 425.142 1210.69 423.039C1210.69 421.281 1209.59 420.402 1207.37 420.402C1205.94 420.402 1204.59 420.76 1203.32 421.477V419.914C1204.59 419.263 1205.94 418.938 1207.37 418.938C1210.79 418.938 1212.5 420.305 1212.5 423.039C1212.5 425.448 1210.17 428.28 1205.52 431.535H1212.5V433H1202.93ZM1216.51 425.979C1216.51 429.748 1217.89 431.633 1220.64 431.633C1223.33 431.633 1224.67 429.748 1224.67 425.979C1224.67 422.261 1223.33 420.402 1220.64 420.402C1217.89 420.402 1216.51 422.261 1216.51 425.979ZM1214.61 426.037C1214.61 421.304 1216.62 418.938 1220.64 418.938C1224.6 418.938 1226.57 421.304 1226.57 426.037C1226.57 430.744 1224.6 433.098 1220.64 433.098C1216.62 433.098 1214.61 430.744 1214.61 426.037ZM1228.24 433V431.535C1233.42 427.974 1236.01 425.142 1236.01 423.039C1236.01 421.281 1234.9 420.402 1232.69 420.402C1231.25 420.402 1229.9 420.76 1228.63 421.477V419.914C1229.9 419.263 1231.25 418.938 1232.69 418.938C1236.1 418.938 1237.81 420.305 1237.81 423.039C1237.81 425.448 1235.49 428.28 1230.83 431.535H1237.81V433H1228.24ZM1239.43 433V431.535C1244.61 427.974 1247.2 425.142 1247.2 423.039C1247.2 421.281 1246.09 420.402 1243.88 420.402C1242.44 420.402 1241.09 420.76 1239.82 421.477V419.914C1241.09 419.263 1242.44 418.938 1243.88 418.938C1247.29 418.938 1249 420.305 1249 423.039C1249 425.448 1246.68 428.28 1242.02 431.535H1249V433H1239.43ZM1252.82 419.035C1254.12 421.978 1254.78 424.924 1254.78 427.873C1254.78 430.822 1254.12 433.768 1252.82 436.711H1251.02C1252.32 433.768 1252.97 430.822 1252.97 427.873C1252.97 424.924 1252.32 421.978 1251.02 419.035H1252.82Z" fill="white"/>
<defs>
<linearGradient id="paint0_linear" x1="720" y1="0" x2="720" y2="805" gradientUnits="userSpaceOnUse">
<stop stop-color="#424355"/>
<stop offset="1" stop-color="#404041" stop-opacity="0"/>
</linearGradient>
<clipPath id="clip0">
<rect width="500" height="359.813" fill="white" transform="matrix(-1 0 0 1 598 299)"/>
</clipPath>
</defs>
</svg>
