<svg width="60" height="60" viewBox="0 0 60 60" fill="none" xmlns="http://www.w3.org/2000/svg">
<path d="M54.7266 7.14844H5.27344C2.3693 7.14844 0 9.51516 0 12.4219V47.5781C0 50.475 2.35875 52.8516 5.27344 52.8516H54.7266C57.6234 52.8516 60 50.4928 60 47.5781V12.4219C60 9.525 57.6413 7.14844 54.7266 7.14844ZM53.9984 10.6641L30.1118 34.5507L6.01863 10.6641H53.9984ZM3.51562 46.8502V13.1331L20.4468 29.919L3.51562 46.8502ZM6.00152 49.3359L22.9433 32.3941L28.8797 38.2795C29.5669 38.9609 30.6758 38.9586 31.3602 38.2741L37.1484 32.4859L53.9985 49.3359H6.00152ZM56.4844 46.85L39.6343 30L56.4844 13.1498V46.85Z" fill="#C8C8C8"/>
</svg>
