<svg width="236" height="236" viewBox="0 0 236 236" fill="none" xmlns="http://www.w3.org/2000/svg">
<g filter="url(#filter0_dd)">
<rect x="18" y="18" width="200" height="200" rx="100" fill="#424355"/>
</g>
<path d="M122.167 103.417H105.5C97.4459 103.417 90.9167 96.8875 90.9167 88.8333C90.9167 80.7792 97.4459 74.25 105.5 74.25H122.167V103.417Z" fill="url(#paint0_linear)"/>
<path d="M120.083 132.583H105.5C97.4459 132.583 90.9167 126.054 90.9167 118C90.9167 109.946 97.4459 103.417 105.5 103.417H120.083V132.583Z" fill="url(#paint1_linear)"/>
<path d="M105.5 161.75C97.4459 161.75 90.9167 155.221 90.9167 147.167C90.9167 139.113 97.4459 132.583 105.5 132.583H120.083V147.167C120.083 155.221 113.554 161.75 105.5 161.75Z" fill="url(#paint2_linear)"/>
<path d="M134.667 103.417H120.083V74.25H134.667C142.721 74.25 149.25 80.7792 149.25 88.8333C149.25 96.8875 142.721 103.417 134.667 103.417Z" fill="url(#paint3_linear)"/>
<path d="M134.667 132.583C142.721 132.583 149.25 126.054 149.25 118C149.25 109.946 142.721 103.417 134.667 103.417C126.612 103.417 120.083 109.946 120.083 118C120.083 126.054 126.612 132.583 134.667 132.583Z" fill="url(#paint4_linear)"/>
<defs>
<filter id="filter0_dd" x="0" y="0" width="236" height="236" filterUnits="userSpaceOnUse" color-interpolation-filters="sRGB">
<feFlood flood-opacity="0" result="BackgroundImageFix"/>
<feColorMatrix in="SourceAlpha" type="matrix" values="0 0 0 0 0 0 0 0 0 0 0 0 0 0 0 0 0 0 127 0"/>
<feOffset dx="6" dy="6"/>
<feGaussianBlur stdDeviation="6"/>
<feColorMatrix type="matrix" values="0 0 0 0 0 0 0 0 0 0 0 0 0 0 0 0 0 0 0.25 0"/>
<feBlend mode="normal" in2="BackgroundImageFix" result="effect1_dropShadow"/>
<feColorMatrix in="SourceAlpha" type="matrix" values="0 0 0 0 0 0 0 0 0 0 0 0 0 0 0 0 0 0 127 0"/>
<feOffset dx="-6" dy="-6"/>
<feGaussianBlur stdDeviation="6"/>
<feColorMatrix type="matrix" values="0 0 0 0 0.371875 0 0 0 0 0.378399 0 0 0 0 0.495833 0 0 0 1 0"/>
<feBlend mode="normal" in2="effect1_dropShadow" result="effect2_dropShadow"/>
<feBlend mode="normal" in="SourceGraphic" in2="effect2_dropShadow" result="shape"/>
</filter>
<linearGradient id="paint0_linear" x1="101.977" y1="70.2938" x2="115.965" y2="108.721" gradientUnits="userSpaceOnUse">
<stop stop-color="#F44F5A"/>
<stop offset="0.443" stop-color="#EE3D4A"/>
<stop offset="1" stop-color="#E52030"/>
</linearGradient>
<linearGradient id="paint1_linear" x1="100.583" y1="98.4915" x2="114.488" y2="136.689" gradientUnits="userSpaceOnUse">
<stop stop-color="#AE4CD5"/>
<stop offset="1" stop-color="#9331BF"/>
</linearGradient>
<linearGradient id="paint2_linear" x1="98.8542" y1="122.911" x2="113.46" y2="163.036" gradientUnits="userSpaceOnUse">
<stop stop-color="#33C481"/>
<stop offset="1" stop-color="#21A366"/>
</linearGradient>
<linearGradient id="paint3_linear" x1="125.287" y1="69.0667" x2="139.081" y2="106.962" gradientUnits="userSpaceOnUse">
<stop stop-color="#F09CA2"/>
<stop offset="1" stop-color="#EB6773"/>
</linearGradient>
<linearGradient id="paint4_linear" x1="127.821" y1="99.1915" x2="140.619" y2="134.354" gradientUnits="userSpaceOnUse">
<stop stop-color="#32BDEF"/>
<stop offset="1" stop-color="#1EA2E4"/>
</linearGradient>
</defs>
</svg>
