<svg width="100" height="100" viewBox="0 0 100 100" fill="none" xmlns="http://www.w3.org/2000/svg">
<path d="M75 12.5H25C18.0958 12.5 12.5 18.0958 12.5 25V75C12.5 81.9042 18.0958 87.5 25 87.5H75C81.9042 87.5 87.5 81.9042 87.5 75V25C87.5 18.0958 81.9042 12.5 75 12.5Z" fill="#50E6FF"/>
<path d="M75 83.3334H25C20.3979 83.3334 16.6667 79.6022 16.6667 75.0001V25.0001C16.6667 20.398 20.3979 16.6667 25 16.6667H75C79.6021 16.6667 83.3333 20.398 83.3333 25.0001V75.0001C83.3333 79.6022 79.6021 83.3334 75 83.3334Z" fill="#092347"/>
<path d="M30.2229 32.025C30.2229 31.8042 30.3833 31.6188 30.6021 31.5938C31.4354 31.5021 33.7604 31.3125 38.7208 31.3125C46.1958 31.3125 51.4313 34.2771 51.4313 42.3896C51.4313 49.7063 46.45 54 38.4125 54C37.9437 54 37.475 54 35.8792 54V66.2542C35.8792 66.4583 35.7125 66.625 35.5083 66.625H30.5958C30.3917 66.625 30.225 66.4583 30.225 66.2542V32.025H30.2229ZM35.8792 48.8479C35.8792 48.8479 38.3521 48.8646 38.9104 48.8646C43.5 48.8646 45.5875 46.1438 45.5875 42.4979C45.5875 39.0833 43.5583 36.4208 39.3167 36.4208C37.5688 36.4208 35.8812 36.5208 35.8812 36.5208V48.8479H35.8792Z" fill="white"/>
<path d="M54.4917 60.3542C54.4917 60.1563 54.7062 60.0333 54.8708 60.1417C55.9208 60.8438 58.0521 62.0458 61.3521 62.0458C63.5062 62.0458 64.8687 61.1188 64.8687 59.6063C64.8687 57.9313 62.5667 56.7167 60.6667 55.6854C58.7771 54.6604 54.5333 53.0146 54.5333 47.7146C54.5333 43.0167 58.2875 40.1833 63.4 40.1833C65.3583 40.1833 67.5188 40.4875 68.9771 41.0188C69.2167 41.1063 69.3625 41.3396 69.3625 41.5958V46.3688C69.3625 46.5646 69.1562 46.6917 68.9917 46.5834C68.0771 45.9854 66.0604 45.0709 63.2854 45.0709C60.975 45.0709 59.9583 46.1959 59.9583 47.3417C59.9583 49.35 62.6333 50.1896 65.0333 51.5979C68.7771 53.6813 70.5125 55.7167 70.5125 58.9063C70.5125 64.1229 66.6229 67.0521 61.3542 67.0521C58.6333 67.0521 56.075 66.4583 54.7667 65.6625C54.5854 65.5521 54.4937 65.3521 54.4937 65.1396L54.4917 60.3542Z" fill="white"/>
</svg>
