<svg width="100" height="100" viewBox="0 0 100 100" fill="none" xmlns="http://www.w3.org/2000/svg">
<path d="M12.5 87.5V12.5H87.5V87.5H12.5Z" fill="#FFD600"/>
<path d="M61.5376 68.6397C62.9793 70.9814 64.546 73.2252 67.8647 73.2252C70.6522 73.2252 72.1147 71.8397 72.1147 69.9231C72.1147 67.6293 70.6022 66.8147 67.5355 65.4793L65.8543 64.7627C61.0022 62.7043 57.7751 60.1252 57.7751 54.6772C57.7751 49.6564 61.6189 45.8356 67.6251 45.8356C71.9022 45.8356 74.9751 47.3168 77.1918 51.196L71.9543 54.5439C70.8022 52.4856 69.5564 51.6752 67.6251 51.6752C65.6543 51.6752 64.4064 52.9189 64.4064 54.5439C64.4064 56.5522 65.6564 57.3647 68.5418 58.6085L70.223 59.3252C75.9418 61.7606 79.1668 64.2481 79.1668 69.8397C79.1668 75.8647 74.4085 79.1668 68.021 79.1668C61.773 79.1668 58.2251 76.0314 56.2501 72.1502L61.5376 68.6397ZM37.4001 68.8106C38.4543 70.6981 40.0564 72.1502 42.3605 72.1502C44.5647 72.1502 45.8334 71.2793 45.8334 67.8939V45.8335H52.7772V68.9606C52.7772 75.9752 48.7084 79.1668 42.7668 79.1668C37.398 79.1668 33.523 75.5293 31.9438 72.1502L37.4001 68.8106Z" fill="#000001"/>
</svg>
