<svg width="100" height="100" viewBox="0 0 100 100" fill="none" xmlns="http://www.w3.org/2000/svg">
<path d="M75 12.5H25C18.0958 12.5 12.5 18.0958 12.5 25V75C12.5 81.9042 18.0958 87.5 25 87.5H75C81.9042 87.5 87.5 81.9042 87.5 75V25C87.5 18.0958 81.9042 12.5 75 12.5Z" fill="#D6742D"/>
<path d="M75 83.3334H25C20.3979 83.3334 16.6667 79.6022 16.6667 75.0001V25.0001C16.6667 20.398 20.3979 16.6667 25 16.6667H75C79.6021 16.6667 83.3333 20.398 83.3333 25.0001V75.0001C83.3333 79.6022 79.6021 83.3334 75 83.3334Z" fill="#CA4E2A"/>
<path d="M54.8875 66.6645H50.4521C49.9729 66.6645 49.5542 66.3374 49.4396 65.8708L47.9083 59.6062C47.7938 59.1395 47.3771 58.8124 46.8958 58.8124H38.9458C38.4646 58.8124 38.0458 59.1416 37.9333 59.6082L36.4188 65.8687C36.3063 66.3353 35.8875 66.6645 35.4063 66.6645H31.0167C30.3271 66.6645 29.8292 66.0083 30.0125 65.3437L39.2479 32.127C39.3729 31.677 39.7833 31.3645 40.2521 31.3645H45.8646C46.3354 31.3645 46.7458 31.6791 46.8708 32.1333L55.8917 65.3499C56.0729 66.0124 55.5729 66.6645 54.8875 66.6645ZM44.9958 52.7082C45.6708 52.7082 46.1688 52.0749 46.0083 51.4187L43.4271 40.8395C43.2146 39.9541 43.0646 38.8937 42.9771 37.6645H42.8271C42.7646 38.6999 42.6083 39.7249 42.3563 40.7437L39.7396 51.4187C39.5792 52.0749 40.075 52.7082 40.7521 52.7082H44.9958Z" fill="white"/>
<path d="M63.2437 37.4708C62.2417 37.4708 61.4208 37.0792 60.7812 36.3C60.1417 35.5208 59.8229 34.5646 59.8229 33.4313C59.8229 32.2667 60.1417 31.3146 60.7812 30.5771C61.4208 29.8396 62.2396 29.4688 63.2437 29.4688C64.2583 29.4688 65.0833 29.8396 65.7167 30.5771C66.35 31.3146 66.6667 32.2688 66.6667 33.4313C66.6667 34.6125 66.35 35.5812 65.7167 36.3375C65.0833 37.0937 64.2583 37.4708 63.2437 37.4708ZM65.1354 66.6646H61.2771C60.7021 66.6646 60.2354 66.1979 60.2354 65.6229V42.5C60.2354 41.925 60.7021 41.4583 61.2771 41.4583H65.1354C65.7104 41.4583 66.1771 41.925 66.1771 42.5V65.625C66.1771 66.1979 65.7125 66.6646 65.1354 66.6646Z" fill="white"/>
</svg>
