<svg width="236" height="236" viewBox="0 0 236 236" fill="none" xmlns="http://www.w3.org/2000/svg">
<g filter="url(#filter0_dd)">
<rect x="18" y="18" width="200" height="200" rx="100" fill="#424355"/>
</g>
<path d="M143 80.5H93C86.0958 80.5 80.5 86.0958 80.5 93V143C80.5 149.904 86.0958 155.5 93 155.5H143C149.904 155.5 155.5 149.904 155.5 143V93C155.5 86.0958 149.904 80.5 143 80.5Z" fill="#D6742D"/>
<path d="M143 151.333H93C88.3979 151.333 84.6667 147.602 84.6667 143V93.0001C84.6667 88.398 88.3979 84.6667 93 84.6667H143C147.602 84.6667 151.333 88.398 151.333 93.0001V143C151.333 147.602 147.602 151.333 143 151.333Z" fill="#CA4E2A"/>
<path d="M122.888 134.665H118.452C117.973 134.665 117.554 134.337 117.44 133.871L115.908 127.606C115.794 127.139 115.377 126.812 114.896 126.812H106.946C106.465 126.812 106.046 127.142 105.933 127.608L104.419 133.869C104.306 134.335 103.888 134.665 103.406 134.665H99.0167C98.3271 134.665 97.8292 134.008 98.0125 133.344L107.248 100.127C107.373 99.677 107.783 99.3645 108.252 99.3645H113.865C114.335 99.3645 114.746 99.6791 114.871 100.133L123.892 133.35C124.073 134.012 123.573 134.665 122.888 134.665ZM112.996 120.708C113.671 120.708 114.169 120.075 114.008 119.419L111.427 108.84C111.215 107.954 111.065 106.894 110.977 105.665H110.827C110.765 106.7 110.608 107.725 110.356 108.744L107.74 119.419C107.579 120.075 108.075 120.708 108.752 120.708H112.996Z" fill="white"/>
<path d="M131.244 105.471C130.242 105.471 129.421 105.079 128.781 104.3C128.142 103.521 127.823 102.565 127.823 101.431C127.823 100.267 128.142 99.3146 128.781 98.5771C129.421 97.8396 130.24 97.4688 131.244 97.4688C132.258 97.4688 133.083 97.8396 133.717 98.5771C134.35 99.3146 134.667 100.269 134.667 101.431C134.667 102.613 134.35 103.581 133.717 104.337C133.083 105.094 132.258 105.471 131.244 105.471ZM133.135 134.665H129.277C128.702 134.665 128.235 134.198 128.235 133.623V110.5C128.235 109.925 128.702 109.458 129.277 109.458H133.135C133.71 109.458 134.177 109.925 134.177 110.5V133.625C134.177 134.198 133.712 134.665 133.135 134.665Z" fill="white"/>
<defs>
<filter id="filter0_dd" x="0" y="0" width="236" height="236" filterUnits="userSpaceOnUse" color-interpolation-filters="sRGB">
<feFlood flood-opacity="0" result="BackgroundImageFix"/>
<feColorMatrix in="SourceAlpha" type="matrix" values="0 0 0 0 0 0 0 0 0 0 0 0 0 0 0 0 0 0 127 0"/>
<feOffset dx="6" dy="6"/>
<feGaussianBlur stdDeviation="6"/>
<feColorMatrix type="matrix" values="0 0 0 0 0 0 0 0 0 0 0 0 0 0 0 0 0 0 0.25 0"/>
<feBlend mode="normal" in2="BackgroundImageFix" result="effect1_dropShadow"/>
<feColorMatrix in="SourceAlpha" type="matrix" values="0 0 0 0 0 0 0 0 0 0 0 0 0 0 0 0 0 0 127 0"/>
<feOffset dx="-6" dy="-6"/>
<feGaussianBlur stdDeviation="6"/>
<feColorMatrix type="matrix" values="0 0 0 0 0.371875 0 0 0 0 0.378399 0 0 0 0 0.495833 0 0 0 1 0"/>
<feBlend mode="normal" in2="effect1_dropShadow" result="effect2_dropShadow"/>
<feBlend mode="normal" in="SourceGraphic" in2="effect2_dropShadow" result="shape"/>
</filter>
</defs>
</svg>
