<svg width="60" height="60" viewBox="0 0 60 60" fill="none" xmlns="http://www.w3.org/2000/svg">
<path d="M42.5711 0H17.4291C7.81863 0 0 7.81863 0 17.4291V42.5709C0 52.1814 7.81863 60 17.4291 60H42.5709C52.1814 60 60 52.1814 60 42.5711V17.4291C60 7.81863 52.1814 0 42.5711 0ZM55.3125 42.5709C55.3125 49.5967 49.5967 55.3125 42.5711 55.3125H17.4291C10.4033 55.3125 4.6875 49.5967 4.6875 42.5711V17.4291C4.6875 10.4033 10.4033 4.6875 17.4291 4.6875H42.5709C49.5967 4.6875 55.3125 10.4033 55.3125 17.4291V42.5709Z" fill="#474747"/>
<path d="M30 13.8281C21.0827 13.8281 13.8281 21.0827 13.8281 30C13.8281 38.9173 21.0827 46.1719 30 46.1719C38.9173 46.1719 46.1719 38.9173 46.1719 30C46.1719 21.0827 38.9173 13.8281 30 13.8281ZM30 41.4844C23.6675 41.4844 18.5156 36.3325 18.5156 30C18.5156 23.6675 23.6675 18.5156 30 18.5156C36.3325 18.5156 41.4844 23.6675 41.4844 30C41.4844 36.3325 36.3325 41.4844 30 41.4844Z" fill="#474747"/>
<path d="M46.4062 15.9375C47.7007 15.9375 48.75 14.8882 48.75 13.5938C48.75 12.2993 47.7007 11.25 46.4062 11.25C45.1118 11.25 44.0625 12.2993 44.0625 13.5938C44.0625 14.8882 45.1118 15.9375 46.4062 15.9375Z" fill="#474747"/>
</svg>
