<svg width="236" height="236" viewBox="0 0 236 236" fill="none" xmlns="http://www.w3.org/2000/svg">
<g filter="url(#filter0_dd)">
<rect x="18" y="18" width="200" height="200" rx="100" fill="#424355"/>
</g>
<path d="M80.5 153.5V78.5H155.5V153.5H80.5Z" fill="#FFD600"/>
<path d="M129.538 134.64C130.979 136.981 132.546 139.225 135.865 139.225C138.652 139.225 140.115 137.84 140.115 135.923C140.115 133.629 138.602 132.815 135.536 131.479L133.854 130.763C129.002 128.704 125.775 126.125 125.775 120.677C125.775 115.656 129.619 111.836 135.625 111.836C139.902 111.836 142.975 113.317 145.192 117.196L139.954 120.544C138.802 118.486 137.556 117.675 135.625 117.675C133.654 117.675 132.406 118.919 132.406 120.544C132.406 122.552 133.656 123.365 136.542 124.608L138.223 125.325C143.942 127.761 147.167 130.248 147.167 135.84C147.167 141.865 142.408 145.167 136.021 145.167C129.773 145.167 126.225 142.031 124.25 138.15L129.538 134.64ZM105.4 134.811C106.454 136.698 108.056 138.15 110.361 138.15C112.565 138.15 113.833 137.279 113.833 133.894V111.833H120.777V134.961C120.777 141.975 116.708 145.167 110.767 145.167C105.398 145.167 101.523 141.529 99.9438 138.15L105.4 134.811Z" fill="#000001"/>
<defs>
<filter id="filter0_dd" x="0" y="0" width="236" height="236" filterUnits="userSpaceOnUse" color-interpolation-filters="sRGB">
<feFlood flood-opacity="0" result="BackgroundImageFix"/>
<feColorMatrix in="SourceAlpha" type="matrix" values="0 0 0 0 0 0 0 0 0 0 0 0 0 0 0 0 0 0 127 0"/>
<feOffset dx="6" dy="6"/>
<feGaussianBlur stdDeviation="6"/>
<feColorMatrix type="matrix" values="0 0 0 0 0 0 0 0 0 0 0 0 0 0 0 0 0 0 0.25 0"/>
<feBlend mode="normal" in2="BackgroundImageFix" result="effect1_dropShadow"/>
<feColorMatrix in="SourceAlpha" type="matrix" values="0 0 0 0 0 0 0 0 0 0 0 0 0 0 0 0 0 0 127 0"/>
<feOffset dx="-6" dy="-6"/>
<feGaussianBlur stdDeviation="6"/>
<feColorMatrix type="matrix" values="0 0 0 0 0.371875 0 0 0 0 0.378399 0 0 0 0 0.495833 0 0 0 1 0"/>
<feBlend mode="normal" in2="effect1_dropShadow" result="effect2_dropShadow"/>
<feBlend mode="normal" in="SourceGraphic" in2="effect2_dropShadow" result="shape"/>
</filter>
</defs>
</svg>
