<svg width="60" height="60" viewBox="0 0 60 60" fill="none" xmlns="http://www.w3.org/2000/svg">
<g clip-path="url(#clip0)">
<path d="M59 29.9976C59 46.0138 46.0163 58.9976 30 58.9976C13.9837 58.9976 1 46.0138 1 29.9976C1 13.9813 13.9837 0.997559 30 0.997559C46.0163 0.997559 59 13.9813 59 29.9976Z" stroke="#C8C8C8" stroke-width="2"/>
<path d="M47.9245 32.4137V44.7821H40.7536V33.2426C40.7536 30.3452 39.7183 28.3665 37.122 28.3665C35.1406 28.3665 33.9636 29.6986 33.4438 30.9885C33.255 31.4495 33.2063 32.0896 33.2063 32.7362V44.7815H26.0349C26.0349 44.7815 26.1312 25.2375 26.0349 23.2145H33.2068V26.2707C33.1924 26.2948 33.1721 26.3183 33.1592 26.3413H33.2068V26.2707C34.1598 24.8044 35.8593 22.708 39.6696 22.708C44.3875 22.708 47.9245 25.7905 47.9245 32.4137ZM18.5331 12.8184C16.08 12.8184 14.4752 14.4286 14.4752 16.5442C14.4752 18.6148 16.0335 20.2716 18.4389 20.2716H18.4855C20.9866 20.2716 22.5418 18.6148 22.5418 16.5442C22.4942 14.4286 20.9866 12.8184 18.5331 12.8184ZM14.9014 44.7821H22.0701V23.2145H14.9014V44.7821Z" fill="#C8C8C8"/>
</g>
<defs>
<clipPath id="clip0">
<rect width="60" height="60" fill="white"/>
</clipPath>
</defs>
</svg>
