<svg width="15" height="25" viewBox="0 0 15 25" fill="none" xmlns="http://www.w3.org/2000/svg">
<path d="M5.841 2.61V9H5.22V6.012H1.431V9H0.801V2.61H1.431V5.454H5.22V2.61H5.841ZM10.0195 9.045C9.56953 9.045 9.16153 8.955 8.79553 8.775C8.42953 8.589 8.11453 8.343 7.85053 8.037C7.58653 7.731 7.38253 7.386 7.23853 7.002C7.09453 6.612 7.02253 6.213 7.02253 5.805C7.02253 5.379 7.09753 4.974 7.24753 4.59C7.39753 4.2 7.60753 3.855 7.87753 3.555C8.15353 3.249 8.47453 3.009 8.84053 2.835C9.20653 2.655 9.60253 2.565 10.0285 2.565C10.4725 2.565 10.8775 2.658 11.2435 2.844C11.6095 3.03 11.9245 3.279 12.1885 3.591C12.4585 3.903 12.6625 4.251 12.8005 4.635C12.9445 5.019 13.0165 5.412 13.0165 5.814C13.0165 6.24 12.9415 6.648 12.7915 7.038C12.6415 7.422 12.4315 7.767 12.1615 8.073C11.8915 8.373 11.5735 8.61 11.2075 8.784C10.8415 8.958 10.4455 9.045 10.0195 9.045ZM7.65253 5.805C7.65253 6.153 7.70953 6.486 7.82353 6.804C7.93753 7.122 8.09953 7.407 8.30953 7.659C8.51953 7.911 8.76853 8.112 9.05653 8.262C9.35053 8.406 9.67153 8.478 10.0195 8.478C10.3855 8.478 10.7125 8.403 11.0005 8.253C11.2945 8.097 11.5435 7.89 11.7475 7.632C11.9575 7.374 12.1165 7.089 12.2245 6.777C12.3325 6.459 12.3865 6.135 12.3865 5.805C12.3865 5.457 12.3295 5.124 12.2155 4.806C12.1015 4.488 11.9365 4.203 11.7205 3.951C11.5105 3.699 11.2615 3.501 10.9735 3.357C10.6855 3.213 10.3675 3.141 10.0195 3.141C9.65953 3.141 9.33253 3.216 9.03853 3.366C8.75053 3.516 8.50153 3.72 8.29153 3.978C8.08753 4.23 7.92853 4.515 7.81453 4.833C7.70653 5.151 7.65253 5.475 7.65253 5.805ZM6.462 20V14.798L4.149 18.839H3.753L1.431 14.798V20H0.801V13.61H1.449L3.942 17.984L6.453 13.61H7.092V20H6.462ZM12.9866 19.442V20H8.69358V13.61H12.9056V14.168H9.32358V16.472H12.4466V17.003H9.32358V19.442H12.9866Z" fill="white"/>
<path d="M0.5 23.5C3.16667 24.1667 9.5 25.1 13.5 23.5" stroke="white" stroke-width="0.5"/>
</svg>
