<svg width="236" height="236" viewBox="0 0 236 236" fill="none" xmlns="http://www.w3.org/2000/svg">
<g filter="url(#filter0_dd)">
<rect x="18" y="18" width="200" height="200" rx="100" fill="#424355"/>
</g>
<path d="M143 80.5H93C86.0958 80.5 80.5 86.0958 80.5 93V143C80.5 149.904 86.0958 155.5 93 155.5H143C149.904 155.5 155.5 149.904 155.5 143V93C155.5 86.0958 149.904 80.5 143 80.5Z" fill="#50E6FF"/>
<path d="M143 151.333H93C88.3979 151.333 84.6667 147.602 84.6667 143V93.0001C84.6667 88.398 88.3979 84.6667 93 84.6667H143C147.602 84.6667 151.333 88.398 151.333 93.0001V143C151.333 147.602 147.602 151.333 143 151.333Z" fill="#092347"/>
<path d="M98.2229 100.025C98.2229 99.8042 98.3833 99.6188 98.6021 99.5938C99.4354 99.5021 101.76 99.3125 106.721 99.3125C114.196 99.3125 119.431 102.277 119.431 110.39C119.431 117.706 114.45 122 106.413 122C105.944 122 105.475 122 103.879 122V134.254C103.879 134.458 103.713 134.625 103.508 134.625H98.5958C98.3917 134.625 98.225 134.458 98.225 134.254V100.025H98.2229ZM103.879 116.848C103.879 116.848 106.352 116.865 106.91 116.865C111.5 116.865 113.588 114.144 113.588 110.498C113.588 107.083 111.558 104.421 107.317 104.421C105.569 104.421 103.881 104.521 103.881 104.521V116.848H103.879Z" fill="white"/>
<path d="M122.492 128.354C122.492 128.156 122.706 128.033 122.871 128.142C123.921 128.844 126.052 130.046 129.352 130.046C131.506 130.046 132.869 129.119 132.869 127.606C132.869 125.931 130.567 124.717 128.667 123.685C126.777 122.66 122.533 121.015 122.533 115.715C122.533 111.017 126.287 108.183 131.4 108.183C133.358 108.183 135.519 108.488 136.977 109.019C137.217 109.106 137.362 109.34 137.362 109.596V114.369C137.362 114.565 137.156 114.692 136.992 114.583C136.077 113.985 134.06 113.071 131.285 113.071C128.975 113.071 127.958 114.196 127.958 115.342C127.958 117.35 130.633 118.19 133.033 119.598C136.777 121.681 138.512 123.717 138.512 126.906C138.512 132.123 134.623 135.052 129.354 135.052C126.633 135.052 124.075 134.458 122.767 133.663C122.585 133.552 122.494 133.352 122.494 133.14L122.492 128.354Z" fill="white"/>
<defs>
<filter id="filter0_dd" x="0" y="0" width="236" height="236" filterUnits="userSpaceOnUse" color-interpolation-filters="sRGB">
<feFlood flood-opacity="0" result="BackgroundImageFix"/>
<feColorMatrix in="SourceAlpha" type="matrix" values="0 0 0 0 0 0 0 0 0 0 0 0 0 0 0 0 0 0 127 0"/>
<feOffset dx="6" dy="6"/>
<feGaussianBlur stdDeviation="6"/>
<feColorMatrix type="matrix" values="0 0 0 0 0 0 0 0 0 0 0 0 0 0 0 0 0 0 0.25 0"/>
<feBlend mode="normal" in2="BackgroundImageFix" result="effect1_dropShadow"/>
<feColorMatrix in="SourceAlpha" type="matrix" values="0 0 0 0 0 0 0 0 0 0 0 0 0 0 0 0 0 0 127 0"/>
<feOffset dx="-6" dy="-6"/>
<feGaussianBlur stdDeviation="6"/>
<feColorMatrix type="matrix" values="0 0 0 0 0.371875 0 0 0 0 0.378399 0 0 0 0 0.495833 0 0 0 1 0"/>
<feBlend mode="normal" in2="effect1_dropShadow" result="effect2_dropShadow"/>
<feBlend mode="normal" in="SourceGraphic" in2="effect2_dropShadow" result="shape"/>
</filter>
</defs>
</svg>
