<svg width="94" height="72" viewBox="0 0 94 72" fill="none" xmlns="http://www.w3.org/2000/svg">
<path d="M2 69.2037C12.2959 58.7142 36.3314 71.5504 36.6154 70.9815C36.7946 70.6225 35.1453 60.9937 33.3538 50.9589C32.0909 43.8855 31.4595 40.3487 33.477 38.8751C35.4946 37.4015 38.6643 39.075 45.0037 42.4222L49.3486 44.7162C55.3579 47.889 58.3625 49.4754 60.3621 48.0813C62.3617 46.6872 61.9123 43.3193 61.0136 36.5836L60.0826 29.607C59.1406 22.5471 58.6696 19.0172 60.7488 17.6336C62.8279 16.25 65.9022 18.0476 72.0506 21.6429L76.7735 24.4046C81.2032 26.9949 83.4181 28.29 85.3004 27.4401C87.1827 26.5903 87.676 24.0724 88.6625 19.0366L92 2" stroke="#FFC011" stroke-opacity="0.35" stroke-width="2" stroke-linecap="square"/>
</svg>
