<svg width="200" height="129" viewBox="0 0 200 129" fill="none" xmlns="http://www.w3.org/2000/svg">
<path d="M199.292 38.8927L199.698 38.6007L199.114 37.7889L198.708 38.0809L199.292 38.8927ZM138.971 57.3368L139.468 57.2843L138.971 57.3368ZM38.6488 101.593L38.445 102.05L38.6488 101.593ZM45.2273 73.7282L45.3718 73.2495L45.2273 73.7282ZM0 127L5.54231 128.617L4.17194 123.009L0 127ZM109.409 18.0685L109.841 17.8156L109.409 18.0685ZM109.338 17.9201L108.871 18.0985L109.338 17.9201ZM197.039 39.2542L196.627 39.5373L197.193 40.3616L197.605 40.0785L197.039 39.2542ZM194.17 42.3257L194.595 42.0617L194.067 41.2125L193.642 41.4765L194.17 42.3257ZM190.147 43.5345L189.711 43.7775L190.197 44.6514L190.634 44.4084L190.147 43.5345ZM186.992 46.3122L187.441 46.0924L187.001 45.1942L186.552 45.4141L186.992 46.3122ZM182.858 47.0973L182.398 47.2916L182.786 48.213L183.247 48.0187L182.858 47.0973ZM179.411 49.5041L179.882 49.3379L179.55 48.3948L179.078 48.561L179.411 49.5041ZM175.22 49.7851L174.738 49.9207L175.01 50.8832L175.491 50.7476L175.22 49.7851ZM171.492 51.7292L171.981 51.627L171.777 50.6481L171.287 50.7504L171.492 51.7292ZM167.297 51.4349L166.802 51.5013L166.934 52.4925L167.43 52.4261L167.297 51.4349ZM163.329 52.8171L163.828 52.7889L163.772 51.7905L163.273 51.8187L163.329 52.8171ZM159.231 51.8858L158.731 51.874L158.707 52.8737L159.207 52.8855L159.231 51.8858ZM155.092 52.6185L155.589 52.6715L155.695 51.6772L155.198 51.6241L155.092 52.6185ZM151.201 51.0275L150.71 50.933L150.521 51.9149L151.012 52.0095L151.201 51.0275ZM147 51.0601L147.481 51.1956L147.752 50.233L147.271 50.0975L147 51.0601ZM143.43 48.8414L142.962 48.6664L142.612 49.6032L143.08 49.7781L143.43 48.8414ZM139.276 48.1779L139.729 48.3902L140.153 47.4848L139.701 47.2725L139.276 48.1779ZM136.114 45.4164L135.679 45.1696L135.185 46.0395L135.62 46.2861L136.114 45.4164ZM132.116 44.1222L132.531 44.4002L133.088 43.5691L132.672 43.291L132.116 44.1222ZM129.385 40.921L128.99 40.6148L128.377 41.4054L128.773 41.7116L129.385 40.921ZM125.601 39.0846L125.976 39.4157L126.638 38.6663L126.263 38.3352L125.601 39.0846ZM123.313 35.5645L122.959 35.2116L122.253 35.92L122.607 36.2729L123.313 35.5645ZM119.78 33.2929L120.114 33.6649L120.858 32.9967L120.524 32.6247L119.78 33.2929ZM117.893 29.5376L117.578 29.1489L116.801 29.7782L117.115 30.1668L117.893 29.5376ZM114.609 26.9142L114.905 27.3172L115.711 26.7254L115.415 26.3224L114.609 26.9142ZM113.084 22.9963L112.806 22.5808L111.975 23.1369L112.253 23.5524L113.084 22.9963ZM110.041 20.0964L110.303 20.5228L111.155 20.0006L110.894 19.5742L110.041 20.0964ZM109.831 17.7981L109.597 17.3565L108.713 17.8252L108.948 18.2669L109.831 17.7981ZM108.895 18.1566L109.093 18.6156L110.011 18.219L109.813 17.76L108.895 18.1566ZM109.204 15.9432L109.066 15.4625L108.105 15.7382L108.243 16.2188L109.204 15.9432ZM107.515 12.3237L107.557 12.822L108.553 12.7381L108.511 12.2398L107.515 12.3237ZM108.635 8.49494L108.716 8.00143L107.729 7.84085L107.648 8.33437L108.635 8.49494ZM108.912 4.51896L108.672 4.95805L109.551 5.43636L109.79 4.99727L108.912 4.51896ZM112.19 2.34604L112.614 2.08054L112.083 1.23317L111.659 1.49867L112.19 2.34604ZM115.658 0.518738L115.159 0.482491L115.087 1.47986L115.585 1.51611L115.658 0.518738ZM119.013 2.64914L119.447 2.89855L119.945 2.03186L119.512 1.78244L119.013 2.64914ZM122.662 4.23617L122.306 3.88485L121.603 4.59639L121.959 4.94771L122.662 4.23617ZM124.408 7.81159L124.705 8.21421L125.51 7.62125L125.214 7.21863L124.408 7.81159ZM127.373 10.5327L127.122 10.1004L126.258 10.6029L126.509 11.0352L127.373 10.5327ZM128.286 14.4015L128.502 14.852L129.404 14.4185L129.187 13.9679L128.286 14.4015ZM130.762 17.526L130.573 17.063L129.647 17.441L129.836 17.9039L130.762 17.526ZM131.199 21.4994L131.365 21.971L132.308 21.6389L132.142 21.1673L131.199 21.4994ZM133.359 24.8707L133.213 24.3927L132.257 24.6861L132.403 25.1641L133.359 24.8707ZM133.475 28.8892L133.605 29.372L134.57 29.1119L134.44 28.6291L133.475 28.8892ZM135.389 32.3772L135.274 31.8908L134.301 32.1222L134.416 32.6087L135.389 32.3772ZM135.254 36.3497L135.357 36.8389L136.336 36.6328L136.233 36.1435L135.254 36.3497ZM136.99 39.9619L136.899 39.4704L135.916 39.6539L136.007 40.1454L136.99 39.9619ZM136.68 43.9746L136.762 44.4679L137.748 44.305L137.667 43.8116L136.68 43.9746ZM138.257 47.6037L138.184 47.109L137.195 47.2537L137.267 47.7485L138.257 47.6037ZM137.797 51.6033L137.861 52.0992L138.853 51.9714L138.789 51.4755L137.797 51.6033ZM139.252 55.3064L139.196 54.8095L138.202 54.922L138.258 55.4188L139.252 55.3064ZM138.67 59.4066L138.713 59.9046L139.71 59.8167L139.666 59.3187L138.67 59.4066ZM139.943 63.2565L139.917 62.7572L138.918 62.809L138.944 63.3084L139.943 63.2565ZM139.07 67.2764L139.075 67.7763L140.075 67.7658L140.07 67.2658L139.07 67.2764ZM140.023 71.2114L140.04 70.7117L139.041 70.6764L139.023 71.1761L140.023 71.2114ZM138.783 75.1028L138.74 75.6009L139.736 75.6886L139.78 75.1905L138.783 75.1028ZM139.311 79.1685L139.385 78.6739L138.396 78.5266L138.322 79.0211L139.311 79.1685ZM137.618 82.8695L137.511 83.3579L138.487 83.572L138.595 83.0836L137.618 82.8695ZM137.598 86.9305L137.742 86.4518L136.785 86.1631L136.64 86.6418L137.598 86.9305ZM135.356 90.3233L135.171 90.7876L136.1 91.1586L136.285 90.6943L135.356 90.3233ZM134.618 94.3468L134.848 93.9029L133.96 93.4428L133.73 93.8867L134.618 94.3468ZM131.753 97.2534L131.477 97.6703L132.311 98.2225L132.587 97.8057L131.753 97.2534ZM130.187 101.019L130.509 100.636L129.743 99.9928L129.421 100.376L130.187 101.019ZM126.747 103.206L126.383 103.549L127.068 104.277L127.432 103.934L126.747 103.206ZM124.358 106.51L124.759 106.211L124.162 105.409L123.761 105.708L124.358 106.51ZM120.508 107.858L120.077 108.111L120.582 108.974L121.013 108.721L120.508 107.858ZM117.456 110.564L117.911 110.357L117.496 109.447L117.041 109.654L117.456 110.564ZM113.411 111.108L112.939 111.272L113.268 112.217L113.74 112.052L113.411 111.108ZM109.914 113.209L110.398 113.083L110.148 112.115L109.664 112.241L109.914 113.209ZM105.835 113.081L105.344 113.171L105.523 114.154L106.015 114.065L105.835 113.081ZM102.071 114.651L102.567 114.593L102.452 113.6L101.955 113.658L102.071 114.651ZM98.0429 113.999L97.5438 114.029L97.6028 115.027L98.1019 114.997L98.0429 113.999ZM94.123 115.13L94.623 115.126L94.6146 114.126L94.1146 114.13L94.123 115.13ZM90.181 114.072L89.6814 114.054L89.6445 115.053L90.1441 115.071L90.181 114.072ZM86.1727 114.842L86.6712 114.881L86.7489 113.884L86.2504 113.845L86.1727 114.842ZM82.3288 113.465L81.832 113.408L81.7175 114.401L82.2142 114.458L82.3288 113.465ZM78.2729 113.935L78.7673 114.009L78.9155 113.02L78.4211 112.946L78.2729 113.935ZM74.5313 112.3L74.0393 112.21L73.8603 113.194L74.3522 113.284L74.5313 112.3ZM70.4552 112.515L70.9443 112.619L71.1518 111.641L70.6627 111.537L70.4552 112.515ZM66.8174 110.666L66.3313 110.549L66.0971 111.521L66.5832 111.638L66.8174 110.666ZM62.7343 110.657L63.2172 110.787L63.4764 109.821L62.9935 109.692L62.7343 110.657ZM59.1941 108.621L58.7146 108.479L58.4315 109.438L58.911 109.58L59.1941 108.621ZM55.1152 108.41L55.5912 108.563L55.8972 107.611L55.4212 107.457L55.1152 108.41ZM51.677 106.205L51.2048 106.041L50.8763 106.985L51.3486 107.149L51.677 106.205ZM47.6131 105.801L48.0813 105.976L48.4319 105.04L47.9636 104.864L47.6131 105.801ZM44.2833 103.437L43.8193 103.25L43.4465 104.178L43.9105 104.365L44.2833 103.437ZM40.2434 102.839L40.7026 103.037L41.0983 102.118L40.6391 101.92L40.2434 102.839ZM37.0633 100.214L36.6323 99.96L36.1254 100.822L36.5563 101.075L37.0633 100.214ZM33.1468 98.5648L33.5183 98.8994L34.1875 98.1563L33.816 97.8217L33.1468 98.5648ZM31.0669 94.8522L30.7608 94.4569L29.9701 95.0692L30.2763 95.4645L31.0669 94.8522ZM27.9848 91.9208L28.2198 92.3622L29.1025 91.8923L28.8675 91.4509L27.9848 91.9208ZM27.2868 87.7251L27.1344 87.2489L26.182 87.5537L26.3344 88.0299L27.2868 87.7251ZM25.4674 83.8766L25.5136 84.3744L26.5093 84.2819L26.4631 83.7841L25.4674 83.8766ZM26.6554 79.8152L26.7596 79.3262L25.7815 79.1179L25.6774 79.6069L26.6554 79.8152ZM27.4349 75.6573L27.1326 76.0556L27.9292 76.6602L28.2315 76.2619L27.4349 75.6573ZM31.243 73.856L31.6954 73.6431L31.2696 72.7383L30.8172 72.9512L31.243 73.856ZM34.9711 71.8671L34.4735 71.9156L34.5706 72.9109L35.0682 72.8624L34.9711 71.8671ZM39.0851 72.9231L39.582 72.9782L39.6921 71.9842L39.1952 71.9292L39.0851 72.9231ZM43.3354 72.688L42.8501 72.5675L42.6092 73.5381L43.0944 73.6585L43.3354 72.688ZM46.8765 74.8403L47.3389 75.0306L47.7196 74.106L47.2572 73.9156L46.8765 74.8403ZM50.6801 75.9164L50.2972 75.5948L49.654 76.3604L50.0368 76.682L50.6801 75.9164ZM52.1036 79.5227L52.2781 79.9913L53.2152 79.6423L53.0407 79.1737L52.1036 79.5227ZM53.4389 83.1823L53.5012 82.6862L52.509 82.5615L52.4467 83.0576L53.4389 83.1823ZM51.4456 86.5952L51.2521 87.0563L52.1742 87.4432L52.3676 86.9822L51.4456 86.5952ZM50.5682 90.4352L50.8299 90.0091L49.9777 89.4858L49.7161 89.9118L50.5682 90.4352ZM47.5624 93.0388L47.2603 93.4372L48.057 94.0415L48.3592 93.6432L47.5624 93.0388ZM45.9219 96.6267L46.2507 96.25L45.4972 95.5925L45.1685 95.9692L45.9219 96.6267ZM42.5917 98.7647L42.2437 99.1238L42.9618 99.8197L43.3098 99.4607L42.5917 98.7647ZM40.5671 102.17L40.9299 101.826L40.2417 101.101L39.879 101.445L40.5671 102.17ZM37.0623 104.021L36.6875 104.352L37.3496 105.101L37.7243 104.77L37.0623 104.021ZM34.8028 107.27L35.1876 106.951L34.5491 106.181L34.1643 106.501L34.8028 107.27ZM31.1939 108.894L30.8003 109.202L31.4169 109.99L31.8105 109.681L31.1939 108.894ZM28.7527 112.011L29.1544 111.713L28.5589 110.91L28.1572 111.208L28.7527 112.011ZM25.0603 113.443L24.6512 113.73L25.2259 114.548L25.6351 114.261L25.0603 113.443ZM22.4608 116.43L22.8773 116.153L22.324 115.32L21.9075 115.597L22.4608 116.43ZM18.7015 117.665L18.2777 117.93L18.8082 118.778L19.232 118.512L18.7015 117.665ZM15.9506 120.5L16.3821 120.247L15.8771 119.384L15.4456 119.637L15.9506 120.5ZM12.1123 121.512L11.6722 121.75L12.1468 122.63L12.5869 122.392L12.1123 121.512ZM9.1546 124.151L9.60469 123.934L9.16914 123.034L8.71907 123.251L9.1546 124.151ZM5.26146 124.803L4.79881 124.993L5.17804 125.918L5.64069 125.729L5.26146 124.803ZM1.9917 127.028L2.47176 126.888L2.19209 125.928L1.71204 126.067L1.9917 127.028ZM198.708 38.0809C198.153 38.4803 197.596 38.8714 197.039 39.2542L197.605 40.0785C198.169 39.6916 198.731 39.2963 199.292 38.8927L198.708 38.0809ZM193.642 41.4765C192.48 42.1989 191.315 42.885 190.147 43.5345L190.634 44.4084C191.816 43.7508 192.995 43.0564 194.17 42.3257L193.642 41.4765ZM186.552 45.4141C185.323 46.0161 184.091 46.5774 182.858 47.0973L183.247 48.0187C184.497 47.4913 185.746 46.9223 186.992 46.3122L186.552 45.4141ZM179.078 48.561C177.792 49.0146 176.505 49.4228 175.22 49.7851L175.491 50.7476C176.798 50.3793 178.105 49.9646 179.411 49.5041L179.078 48.561ZM171.287 50.7504C169.955 51.0288 168.625 51.2572 167.297 51.4349L167.43 52.4261C168.782 52.2451 170.136 52.0125 171.492 51.7292L171.287 50.7504ZM163.273 51.8187C161.921 51.895 160.573 51.9176 159.231 51.8858L159.207 52.8855C160.576 52.918 161.951 52.8949 163.329 52.8171L163.273 51.8187ZM155.198 51.6241C153.858 51.4813 152.526 51.2827 151.201 51.0275L151.012 52.0095C152.364 52.27 153.725 52.4727 155.092 52.6185L155.198 51.6241ZM147.271 50.0975C145.982 49.7346 144.701 49.3161 143.43 48.8414L143.08 49.7781C144.377 50.2626 145.684 50.6897 147 51.0601L147.271 50.0975ZM139.701 47.2725C138.495 46.707 137.299 46.0885 136.114 45.4164L135.62 46.2861C136.828 46.9709 138.047 47.6013 139.276 48.1779L139.701 47.2725ZM132.672 43.291C131.565 42.5505 130.469 41.7607 129.385 40.921L128.773 41.7116C129.875 42.5652 130.99 43.3686 132.116 44.1222L132.672 43.291ZM126.263 38.3352C125.268 37.4562 124.285 36.5328 123.313 35.5645L122.607 36.2729C123.593 37.255 124.591 38.1921 125.601 39.0846L126.263 38.3352ZM120.524 32.6247C119.635 31.6356 118.758 30.6067 117.893 29.5376L117.115 30.1668C117.991 31.2489 118.88 32.2908 119.78 33.2929L120.524 32.6247ZM115.415 26.3224C114.627 25.2493 113.85 24.1407 113.084 22.9963L112.253 23.5524C113.027 24.7086 113.812 25.8291 114.609 26.9142L115.415 26.3224ZM110.894 19.5742C110.54 18.9962 110.189 18.41 109.841 17.8156L108.978 18.3214C109.33 18.9212 109.684 19.5129 110.041 20.0964L110.894 19.5742ZM109.841 17.8156C109.837 17.8102 109.834 17.8044 109.831 17.7981L108.948 18.2669C108.957 18.2852 108.967 18.3034 108.978 18.3214L109.841 17.8156ZM109.813 17.76C109.81 17.7536 109.807 17.7475 109.805 17.7417L108.871 18.0985C108.878 18.1181 108.886 18.1375 108.895 18.1566L109.813 17.76ZM109.805 17.7417C109.573 17.1349 109.373 16.5348 109.204 15.9432L108.243 16.2188C108.42 16.8382 108.629 17.4655 108.871 18.0985L109.805 17.7417ZM108.511 12.2398C108.399 10.9033 108.448 9.64548 108.635 8.49494L107.648 8.33437C107.447 9.57096 107.396 10.9111 107.515 12.3237L108.511 12.2398ZM109.79 4.99727C110.418 3.84303 111.238 2.9427 112.19 2.34604L111.659 1.49867C110.541 2.19948 109.61 3.23694 108.912 4.51896L109.79 4.99727ZM115.585 1.51611C116.644 1.59309 117.797 1.94929 119.013 2.64914L119.512 1.78244C118.186 1.01946 116.889 0.608246 115.658 0.518738L115.585 1.51611ZM121.959 4.94771C122.768 5.74604 123.587 6.69625 124.408 7.81159L125.214 7.21863C124.365 6.0663 123.512 5.07552 122.662 4.23617L121.959 4.94771ZM126.509 11.0352C127.106 12.0625 127.7 13.183 128.286 14.4015L129.187 13.9679C128.59 12.7278 127.985 11.5841 127.373 10.5327L126.509 11.0352ZM129.836 17.9039C130.298 19.0348 130.753 20.2325 131.199 21.4994L132.142 21.1673C131.691 19.8858 131.23 18.6728 130.762 17.526L129.836 17.9039ZM132.403 25.1641C132.768 26.3535 133.126 27.5947 133.475 28.8892L134.44 28.6291C134.089 27.3239 133.728 26.0716 133.359 24.8707L132.403 25.1641ZM134.416 32.6087C134.703 33.8144 134.983 35.0611 135.254 36.3497L136.233 36.1435C135.96 34.8468 135.678 33.5917 135.389 32.3772L134.416 32.6087ZM136.007 40.1454C136.239 41.3864 136.463 42.6626 136.68 43.9746L137.667 43.8116C137.449 42.493 137.223 41.21 136.99 39.9619L136.007 40.1454ZM137.267 47.7485C137.451 49.0031 137.628 50.2878 137.797 51.6033L138.789 51.4755C138.619 50.1545 138.441 48.8641 138.257 47.6037L137.267 47.7485ZM138.258 55.4188C138.332 56.0686 138.404 56.7255 138.474 57.3893L139.468 57.2843C139.398 56.618 139.326 55.9587 139.252 55.3064L138.258 55.4188ZM138.474 57.3893C138.546 58.0692 138.611 58.7416 138.67 59.4066L139.666 59.3187C139.606 58.6479 139.541 57.9697 139.468 57.2843L138.474 57.3893ZM138.944 63.3084C139.015 64.6639 139.056 65.9863 139.07 67.2764L140.07 67.2658C140.056 65.9615 140.014 64.6253 139.943 63.2565L138.944 63.3084ZM139.023 71.1761C138.976 72.5232 138.895 73.8318 138.783 75.1028L139.78 75.1905C139.893 73.9014 139.975 72.5753 140.023 71.2114L139.023 71.1761ZM138.322 79.0211C138.124 80.3491 137.889 81.6314 137.618 82.8695L138.595 83.0836C138.871 81.8226 139.11 80.5179 139.311 79.1685L138.322 79.0211ZM136.64 86.6418C136.254 87.922 135.826 89.1486 135.356 90.3233L136.285 90.6943C136.765 89.4917 137.204 88.2377 137.598 86.9305L136.64 86.6418ZM133.73 93.8867C133.117 95.0695 132.457 96.1909 131.753 97.2534L132.587 97.8057C133.311 96.7129 133.989 95.5607 134.618 94.3468L133.73 93.8867ZM129.421 100.376C128.576 101.382 127.683 102.325 126.747 103.206L127.432 103.934C128.397 103.026 129.316 102.055 130.187 101.019L129.421 100.376ZM123.761 105.708C122.718 106.484 121.632 107.2 120.508 107.858L121.013 108.721C122.168 108.045 123.284 107.309 124.358 106.51L123.761 105.708ZM117.041 109.654C115.864 110.191 114.653 110.675 113.411 111.108L113.74 112.052C115.01 111.609 116.249 111.114 117.456 110.564L117.041 109.654ZM109.664 112.241C108.412 112.565 107.134 112.844 105.835 113.081L106.015 114.065C107.336 113.824 108.637 113.539 109.914 113.209L109.664 112.241ZM101.955 113.658C100.667 113.808 99.3621 113.921 98.0429 113.999L98.1019 114.997C99.4391 114.918 100.763 114.804 102.071 114.651L101.955 113.658ZM94.1146 114.13C92.8131 114.141 91.501 114.121 90.181 114.072L90.1441 115.071C91.4785 115.121 92.8057 115.141 94.123 115.13L94.1146 114.13ZM86.2504 113.845C84.9473 113.743 83.6393 113.616 82.3288 113.465L82.2142 114.458C83.5365 114.611 84.8568 114.739 86.1727 114.842L86.2504 113.845ZM78.4211 112.946C77.1237 112.752 75.8263 112.536 74.5313 112.3L74.3522 113.284C75.6571 113.521 76.9648 113.739 78.2729 113.935L78.4211 112.946ZM70.6627 111.537C69.3753 111.264 68.0928 110.973 66.8174 110.666L66.5832 111.638C67.8672 111.947 69.1586 112.24 70.4552 112.515L70.6627 111.537ZM62.9935 109.692C61.7163 109.349 60.449 108.991 59.1941 108.621L58.911 109.58C60.1737 109.953 61.4489 110.312 62.7343 110.657L62.9935 109.692ZM55.4212 107.457C54.1564 107.051 52.9074 106.633 51.677 106.205L51.3486 107.149C52.5863 107.58 53.8427 108 55.1152 108.41L55.4212 107.457ZM47.9636 104.864C46.7121 104.396 45.4842 103.919 44.2833 103.437L43.9105 104.365C45.1188 104.85 46.354 105.33 47.6131 105.801L47.9636 104.864ZM40.6391 101.92C40.035 101.66 39.4393 101.399 38.8525 101.137L38.445 102.05C39.0357 102.314 39.6353 102.577 40.2434 102.839L40.6391 101.92ZM38.8525 101.137C38.2393 100.863 37.6424 100.554 37.0633 100.214L36.5563 101.075C37.1665 101.434 37.7965 101.761 38.445 102.05L38.8525 101.137ZM33.816 97.8217C32.8123 96.9178 31.8921 95.9178 31.0669 94.8522L30.2763 95.4645C31.1362 96.5749 32.0967 97.6191 33.1468 98.5648L33.816 97.8217ZM28.8675 91.4509C28.2189 90.2326 27.688 88.9788 27.2868 87.7251L26.3344 88.0299C26.7545 89.3427 27.3091 90.6516 27.9848 91.9208L28.8675 91.4509ZM26.4631 83.7841C26.3333 82.3873 26.3931 81.0473 26.6554 79.8152L25.6774 79.6069C25.3909 80.952 25.3297 82.3947 25.4674 83.8766L26.4631 83.7841ZM28.2315 76.2619C28.9803 75.2754 29.9742 74.4531 31.243 73.856L30.8172 72.9512C29.4053 73.6156 28.2832 74.5397 27.4349 75.6573L28.2315 76.2619ZM35.0682 72.8624C36.2633 72.7458 37.5994 72.7585 39.0851 72.9231L39.1952 71.9292C37.6506 71.7581 36.2444 71.7429 34.9711 71.8671L35.0682 72.8624ZM43.0944 73.6585C43.7361 73.8178 44.3988 74.0002 45.0827 74.2068L45.3718 73.2495C44.6728 73.0384 43.9941 72.8515 43.3354 72.688L43.0944 73.6585ZM45.0827 74.2068C45.7273 74.4015 46.3246 74.6131 46.8765 74.8403L47.2572 73.9156C46.6727 73.6749 46.0446 73.4527 45.3718 73.2495L45.0827 74.2068ZM50.0368 76.682C51.0452 77.5291 51.7164 78.4831 52.1036 79.5227L53.0407 79.1737C52.5881 77.9585 51.8091 76.8649 50.6801 75.9164L50.0368 76.682ZM52.4467 83.0576C52.3072 84.1675 51.9678 85.351 51.4456 86.5952L52.3676 86.9822C52.9165 85.6744 53.2856 84.4019 53.4389 83.1823L52.4467 83.0576ZM49.7161 89.9118C49.0887 90.9334 48.3671 91.9781 47.5624 93.0388L48.3592 93.6432C49.1805 92.5603 49.9212 91.4886 50.5682 90.4352L49.7161 89.9118ZM45.1685 95.9692C44.3593 96.8964 43.4979 97.8297 42.5917 98.7647L43.3098 99.4607C44.2269 98.5144 45.1002 97.5683 45.9219 96.6267L45.1685 95.9692ZM39.879 101.445C38.9698 102.307 38.0289 103.167 37.0623 104.021L37.7243 104.77C38.6993 103.909 39.6489 103.041 40.5671 102.17L39.879 101.445ZM34.1643 106.501C33.1907 107.308 32.1988 108.107 31.1939 108.894L31.8105 109.681C32.8225 108.889 33.8217 108.084 34.8028 107.27L34.1643 106.501ZM28.1572 111.208C27.1307 111.969 26.0966 112.715 25.0603 113.443L25.6351 114.261C26.6783 113.528 27.7193 112.777 28.7527 112.011L28.1572 111.208ZM21.9075 115.597C20.8332 116.31 19.7625 117.001 18.7015 117.665L19.232 118.512C20.3008 117.844 21.3791 117.148 22.4608 116.43L21.9075 115.597ZM15.4456 119.637C14.3125 120.3 13.1988 120.926 12.1123 121.512L12.5869 122.392C13.6842 121.801 14.8081 121.168 15.9506 120.5L15.4456 119.637ZM8.71907 123.251C7.51079 123.836 6.3539 124.356 5.26146 124.803L5.64069 125.729C6.75481 125.272 7.93059 124.744 9.1546 124.151L8.71907 123.251Z" fill="#FFC011"/>
</svg>
