<svg width="99" height="65" viewBox="0 0 99 65" fill="none" xmlns="http://www.w3.org/2000/svg">
<path d="M0.708183 45.1481L0.302175 45.4399L0.885808 46.2519L1.29182 45.9601L0.708183 45.1481ZM79.9669 14.5017L80.1706 14.045L79.9669 14.5017ZM76.7273 28.2131L76.5828 28.6918L76.7273 28.2131ZM99 2L93.3912 0.630705L95.0098 6.17269L99 2ZM45.0989 55.5652L45.53 55.3119L45.0989 55.5652ZM45.1701 55.7136L44.7024 55.8904L45.1701 55.7136ZM2.81232 44.9131L3.22989 44.6381L2.67985 43.803L2.26228 44.078L2.81232 44.9131ZM5.50474 42.1409L5.06422 42.3774L5.53727 43.2584L5.97779 43.0219L5.50474 42.1409ZM9.30249 41.4451L9.7648 41.2547L9.38394 40.33L8.92162 40.5205L9.30249 41.4451ZM12.4978 39.2796L12.0165 39.4153L12.2879 40.3778L12.7692 40.2421L12.4978 39.2796ZM16.3522 39.4755L16.847 39.4037L16.7033 38.4141L16.2085 38.4859L16.3522 39.4755ZM19.9976 38.208L19.4976 38.2082L19.4979 39.2082L19.9979 39.208L19.9976 38.208ZM23.638 39.4848L24.1322 39.5611L24.2847 38.5728L23.7905 38.4965L23.638 39.4848ZM27.4951 39.3683L27.0187 39.2163L26.7147 40.169L27.191 40.321L27.4951 39.3683ZM30.5744 41.6919L31.0226 41.9136L31.466 41.0173L31.0179 40.7956L30.5744 41.6919ZM34.2949 42.7159L33.8818 42.4342L33.3185 43.2605L33.7317 43.5421L34.2949 42.7159ZM36.6266 45.7965L37.0018 46.127L37.6628 45.3766L37.2876 45.0461L36.6266 45.7965ZM39.9823 47.698L39.6449 47.329L38.9069 48.0039L39.2444 48.3728L39.9823 47.698ZM41.5973 51.2062L41.8989 51.6049L42.6964 51.0016L42.3948 50.6029L41.5973 51.2062ZM44.5452 53.7027L44.2765 53.281L43.4332 53.8184L43.7019 54.2401L44.5452 53.7027ZM44.6775 55.8359L44.9123 56.2774L45.7952 55.8079L45.5605 55.3664L44.6775 55.8359ZM45.6139 55.4778L45.4163 55.0185L44.4977 55.4138L44.6954 55.8731L45.6139 55.4778ZM45.2253 57.8149L45.3062 58.3083L46.293 58.1466L46.2121 57.6532L45.2253 57.8149ZM45.7567 62.0521L45.9643 61.5972L45.0546 61.182L44.847 61.6369L45.7567 62.0521ZM42.0711 63.4907L41.5728 63.4499L41.4912 64.4466L41.9895 64.4874L42.0711 63.4907ZM38.1219 62.287L38.4638 62.6518L39.1935 61.9681L38.8516 61.6032L38.1219 62.287ZM36.5541 58.282L36.3175 57.8415L35.4365 58.3145L35.673 58.755L36.5541 58.282ZM33.9384 54.8586L34.1129 55.3272L35.05 54.9781L34.8755 54.5096L33.9384 54.8586ZM33.6113 50.5679L33.4781 50.0859L32.5142 50.3524L32.6475 50.8343L33.6113 50.5679ZM31.6603 46.7508L31.7634 47.24L32.7419 47.0338L32.6388 46.5446L31.6603 46.7508ZM31.8782 42.4305L31.7986 41.9368L30.8113 42.096L30.8909 42.5897L31.8782 42.4305ZM30.306 38.4477L30.3669 38.944L31.3594 38.8223L31.2986 38.326L30.306 38.4477ZM30.8864 34.2706L30.8513 33.7719L29.8538 33.8421L29.8889 34.3409L30.8864 34.2706ZM29.7676 30.4206L29.7618 30.9206L30.7617 30.9322L30.7676 30.4323L29.7676 30.4206ZM31.0056 26.6L31.0639 26.1034L30.0707 25.9867L30.0124 26.4833L31.0056 26.6ZM30.7314 22.585L30.606 23.069L31.5739 23.32L31.6994 22.836L30.7314 22.585ZM32.96 19.2485L33.1681 18.7939L32.2587 18.3778L32.0507 18.8325L32.96 19.2485ZM34.0781 15.3966L33.7786 15.797L34.5793 16.396L34.8788 15.9957L34.0781 15.3966ZM37.4698 13.2598L37.8535 12.9391L37.2122 12.1718L36.8286 12.4925L37.4698 13.2598ZM40.1612 10.2888L39.717 10.5183L40.176 11.4067L40.6202 11.1773L40.1612 10.2888ZM44.1449 9.76389L44.6236 9.61963L44.3351 8.66216L43.8563 8.80642L44.1449 9.76389ZM47.7291 7.95302L47.2345 8.02624L47.3809 9.01546L47.8755 8.94224L47.7291 7.95302ZM51.6993 8.60651L52.1991 8.59011L52.1663 7.59065L51.6665 7.60705L51.6993 8.60651ZM55.6089 7.66306L55.1098 7.63408L55.0518 8.6324L55.551 8.66138L55.6089 7.66306ZM59.3916 9.03212L59.8873 9.098L60.019 8.10672L59.5234 8.04084L59.3916 9.03212ZM63.398 8.68289L62.9075 8.58616L62.714 9.56726L63.2046 9.664L63.398 8.68289ZM66.9796 10.5183L67.4641 10.6416L67.7109 9.67255L67.2263 9.54918L66.9796 10.5183ZM71.0008 10.6118L70.523 10.4646L70.2285 11.4202L70.7063 11.5674L71.0008 10.6118ZM74.3768 12.7943L74.8472 12.9639L75.1864 12.0232L74.716 11.8536L74.3768 12.7943ZM78.3705 13.27L77.9088 13.0781L77.525 14.0016L77.9867 14.1935L78.3705 13.27ZM81.4253 15.9325L81.8277 16.2293L82.4213 15.4246L82.019 15.1278L81.4253 15.9325ZM84.9043 18.2273L84.6326 17.8076L83.7931 18.3509L84.0647 18.7706L84.9043 18.2273ZM85.5698 22.3392L85.6732 22.8284L86.6516 22.6215L86.5481 22.1323L85.5698 22.3392ZM86.2625 26.4413L86.4633 25.9834L85.5475 25.5818L85.3467 26.0397L86.2625 26.4413ZM82.6328 28.2285L82.148 28.3507L82.3924 29.3204L82.8773 29.1982L82.6328 28.2285ZM78.6251 29.1949L79.1167 29.2861L79.2991 28.3029L78.8075 28.2117L78.6251 29.1949ZM75.0756 26.9614L74.6496 26.6997L74.1262 27.5518L74.5523 27.8135L75.0756 26.9614ZM72.3953 23.9489L72.3724 24.4484L73.3714 24.4942L73.3943 23.9947L72.3953 23.9489ZM74.7338 20.3812L74.9957 19.9553L74.1438 19.4316L73.8819 19.8575L74.7338 20.3812ZM76.4483 16.4908L76.1151 16.8635L76.8606 17.53L77.1939 17.1572L76.4483 16.4908ZM80.0838 14.2474L80.4518 13.9088L79.7748 13.1729L79.4068 13.5114L80.0838 14.2474ZM82.5841 10.7919L82.1938 11.1043L82.8187 11.885L83.209 11.5726L82.5841 10.7919ZM86.4998 9.09394L86.9076 8.80466L86.3291 7.98902L85.9213 8.2783L86.4998 9.09394ZM89.3962 5.95994L88.9723 6.22502L89.5025 7.07292L89.9264 6.80784L89.3962 5.95994ZM93.488 4.74642L93.9301 4.51277L93.4628 3.62867L93.0207 3.86232L93.488 4.74642ZM96.8461 2.10945L96.3772 2.28295L96.7242 3.22081L97.1931 3.04731L96.8461 2.10945ZM1.29182 45.9601C1.79704 45.597 2.30396 45.248 2.81232 44.9131L2.26228 44.078C1.74234 44.4205 1.22422 44.7772 0.708183 45.1481L1.29182 45.9601ZM5.97779 43.0219C7.08307 42.4285 8.19221 41.9024 9.30249 41.4451L8.92162 40.5205C7.77853 40.9913 6.63865 41.5321 5.50474 42.1409L5.97779 43.0219ZM12.7692 40.2421C13.9666 39.9044 15.162 39.6484 16.3522 39.4755L16.2085 38.4859C14.9735 38.6653 13.7354 38.9306 12.4978 39.2796L12.7692 40.2421ZM19.9979 39.208C21.2213 39.2078 22.4359 39.2993 23.638 39.4848L23.7905 38.4965C22.5369 38.3031 21.2713 38.2077 19.9976 38.208L19.9979 39.208ZM27.191 40.321C28.3343 40.6859 29.4632 41.1421 30.5744 41.6919L31.0179 40.7956C29.8623 40.2238 28.6868 39.7487 27.4951 39.3683L27.191 40.321ZM33.7317 43.5421C34.7148 44.2124 35.6807 44.9632 36.6266 45.7965L37.2876 45.0461C36.3119 44.1866 35.3135 43.4102 34.2949 42.7159L33.7317 43.5421ZM39.2444 48.3728C40.0471 49.2506 40.8321 50.1947 41.5973 51.2062L42.3948 50.6029C41.6117 49.5677 40.8069 48.5997 39.9823 47.698L39.2444 48.3728ZM43.7019 54.2401C44.0283 54.7524 44.3504 55.2785 44.6679 55.8186L45.53 55.3119C45.2065 54.7616 44.8782 54.2253 44.5452 53.7027L43.7019 54.2401ZM44.6679 55.8186C44.671 55.824 44.6743 55.8298 44.6775 55.8359L45.5605 55.3664C45.5507 55.3481 45.5405 55.3299 45.53 55.3119L44.6679 55.8186ZM44.6954 55.8731C44.698 55.8792 44.7004 55.885 44.7024 55.8904L45.6378 55.5368C45.6302 55.5168 45.6223 55.4971 45.6139 55.4778L44.6954 55.8731ZM44.7024 55.8904C44.9532 56.5539 45.1244 57.1992 45.2253 57.8149L46.2121 57.6532C46.1001 56.9695 45.9112 56.2601 45.6378 55.5368L44.7024 55.8904ZM44.847 61.6369C44.2652 62.9115 43.2533 63.5875 42.0711 63.4907L41.9895 64.4874C43.6849 64.6262 45.0424 63.6172 45.7567 62.0521L44.847 61.6369ZM38.8516 61.6032C38.0958 60.7966 37.3185 59.7059 36.5541 58.282L35.673 58.755C36.469 60.2378 37.2944 61.4039 38.1219 62.287L38.8516 61.6032ZM34.8755 54.5096C34.4367 53.3313 34.0129 52.0206 33.6113 50.5679L32.6475 50.8343C33.056 52.3121 33.4885 53.6506 33.9384 54.8586L34.8755 54.5096ZM32.6388 46.5446C32.368 45.2598 32.1135 43.8898 31.8782 42.4305L30.8909 42.5897C31.1286 44.0637 31.386 45.4495 31.6603 46.7508L32.6388 46.5446ZM31.2986 38.326C31.2148 37.6427 31.135 36.9428 31.0592 36.2262L30.0648 36.3313C30.1411 37.0533 30.2216 37.7587 30.306 38.4477L31.2986 38.326ZM31.0592 36.2262C30.9888 35.5596 30.9313 34.9079 30.8864 34.2706L29.8889 34.3409C29.9346 34.9901 29.9931 35.6535 30.0648 36.3313L31.0592 36.2262ZM30.7676 30.4323C30.7833 29.0788 30.8643 27.8025 31.0056 26.6L30.0124 26.4833C29.8667 27.7232 29.7838 29.0347 29.7676 30.4206L30.7676 30.4323ZM31.6994 22.836C32.037 21.5339 32.4604 20.3406 32.96 19.2485L32.0507 18.8325C31.5252 19.981 31.0828 21.2299 30.7314 22.585L31.6994 22.836ZM34.8788 15.9957C35.653 14.961 36.521 14.0527 37.4698 13.2598L36.8286 12.4925C35.8212 13.3344 34.8994 14.299 34.0781 15.3966L34.8788 15.9957ZM40.6202 11.1773C41.7291 10.6045 42.9083 10.1366 44.1449 9.76389L43.8563 8.80642C42.5666 9.1951 41.3297 9.68523 40.1612 10.2888L40.6202 11.1773ZM47.8755 8.94224C49.1164 8.75855 50.3947 8.64934 51.6993 8.60651L51.6665 7.60705C50.3279 7.651 49.0114 7.76321 47.7291 7.95302L47.8755 8.94224ZM55.551 8.66138C56.8216 8.73515 58.105 8.86111 59.3916 9.03212L59.5234 8.04084C58.2144 7.86685 56.9063 7.73839 55.6089 7.66306L55.551 8.66138ZM63.2046 9.664C64.4729 9.91409 65.7343 10.2012 66.9796 10.5183L67.2263 9.54918C65.9645 9.22789 64.6853 8.93672 63.398 8.68289L63.2046 9.664ZM70.7063 11.5674C71.9618 11.9543 73.1889 12.3659 74.3768 12.7943L74.716 11.8536C73.5138 11.4201 72.2718 11.0034 71.0008 10.6118L70.7063 11.5674ZM77.9867 14.1935C78.5952 14.4464 79.1881 14.7018 79.7633 14.9583L80.1706 14.045C79.5874 13.785 78.9868 13.5262 78.3705 13.27L77.9867 14.1935ZM79.7633 14.9583C80.3493 15.2196 80.9052 15.5489 81.4253 15.9325L82.019 15.1278C81.445 14.7044 80.827 14.3377 80.1706 14.045L79.7633 14.9583ZM84.0647 18.7706C84.8003 19.9073 85.317 21.1437 85.5698 22.3392L86.5481 22.1323C86.2681 20.8082 85.7011 19.4587 84.9043 18.2273L84.0647 18.7706ZM85.3467 26.0397C84.893 27.0746 84.0313 27.8759 82.6328 28.2285L82.8773 29.1982C84.5668 28.7722 85.6813 27.7669 86.2625 26.4413L85.3467 26.0397ZM78.8075 28.2117C78.2074 28.1004 77.5628 27.943 76.8717 27.7344L76.5828 28.6918C77.3051 28.9098 77.9854 29.0763 78.6251 29.1949L78.8075 28.2117ZM76.8717 27.7344C76.1455 27.5153 75.5522 27.2541 75.0756 26.9614L74.5523 27.8135C75.1168 28.1602 75.7925 28.4533 76.5828 28.6918L76.8717 27.7344ZM73.3943 23.9947C73.4421 22.9506 73.9055 21.7285 74.7338 20.3812L73.8819 19.8575C73.0118 21.2729 72.4542 22.6645 72.3953 23.9489L73.3943 23.9947ZM77.1939 17.1572C78.0561 16.1928 79.031 15.2159 80.0838 14.2474L79.4068 13.5114C78.3344 14.4979 77.3359 15.498 76.4483 16.4908L77.1939 17.1572ZM83.209 11.5726C84.2795 10.7158 85.3857 9.88422 86.4998 9.09394L85.9213 8.2783C84.7921 9.07927 83.6704 9.9225 82.5841 10.7919L83.209 11.5726ZM89.9264 6.80784C91.1543 6.04006 92.3545 5.34557 93.488 4.74642L93.0207 3.86232C91.8633 4.47407 90.6422 5.18089 89.3962 5.95994L89.9264 6.80784Z" fill="#FFC011"/>
</svg>
