<svg width="249" height="86" viewBox="0 0 249 86" fill="none" xmlns="http://www.w3.org/2000/svg">
<path d="M41 82C35.8784 82 30.807 80.9912 26.0753 79.0313C21.3436 77.0714 17.0443 74.1986 13.4228 70.5772C9.80135 66.9557 6.92863 62.6564 4.9687 57.9247C3.00877 53.193 2 48.1215 2 43C2 37.8784 3.00876 32.807 4.9687 28.0753C6.92863 23.3436 9.80135 19.0443 13.4228 15.4228C17.0443 11.8013 21.3437 8.92863 26.0753 6.9687C30.807 5.00876 35.8784 4 41 4" stroke="url(#paint0_linear_67_448)" stroke-width="4"/>
<path d="M49 82C54.1216 82 59.193 80.9912 63.9247 79.0313C68.6564 77.0714 72.9557 74.1986 76.5772 70.5772C80.1987 66.9557 83.0714 62.6564 85.0313 57.9247C86.9912 53.193 88 48.1215 88 43C88 37.8784 86.9912 32.807 85.0313 28.0753C83.0714 23.3436 80.1987 19.0443 76.5772 15.4228C72.9557 11.8013 68.6563 8.92863 63.9247 6.9687C59.193 5.00876 54.1216 4 49 4" stroke="url(#paint1_linear_67_448)" stroke-width="4" stroke-dasharray="1.2 1.2"/>
<path d="M29.9123 58.4C28.539 58.4 27.199 58.2267 25.8923 57.88C24.5857 57.5333 23.399 57.02 22.3323 56.34C21.2657 55.6467 20.379 54.7867 19.6723 53.76C18.979 52.7333 18.5457 51.5333 18.3723 50.16H22.8323C23.059 51.2 23.5057 52.0733 24.1723 52.78C24.8523 53.4867 25.6857 54.02 26.6723 54.38C27.659 54.74 28.7323 54.92 29.8923 54.92C31.1723 54.92 32.319 54.7467 33.3323 54.4C34.359 54.04 35.1723 53.5333 35.7723 52.88C36.3723 52.2133 36.6723 51.4133 36.6723 50.48C36.6723 49.64 36.4657 48.9267 36.0523 48.34C35.6523 47.7533 35.079 47.2667 34.3323 46.88C33.599 46.48 32.7123 46.1667 31.6723 45.94L26.1923 44.7C24.0457 44.2467 22.3523 43.4067 21.1123 42.18C19.8857 40.94 19.2657 39.3 19.2523 37.26C19.239 35.5533 19.6857 34.06 20.5923 32.78C21.5123 31.5 22.7657 30.5067 24.3523 29.8C25.939 29.08 27.7457 28.72 29.7723 28.72C32.1323 28.72 34.1123 29.1133 35.7123 29.9C37.3257 30.6867 38.5457 31.7267 39.3723 33.02C40.199 34.3 40.619 35.6933 40.6323 37.2H36.2523C36.1457 35.9733 35.7857 35 35.1723 34.28C34.559 33.56 33.7857 33.0467 32.8523 32.74C31.9323 32.42 30.919 32.26 29.8123 32.26C29.0123 32.26 28.2457 32.36 27.5123 32.56C26.779 32.76 26.1323 33.0533 25.5723 33.44C25.0123 33.8267 24.5657 34.3067 24.2323 34.88C23.9123 35.44 23.7523 36.0867 23.7523 36.82C23.7523 37.8067 24.0857 38.6067 24.7523 39.22C25.419 39.8333 26.6457 40.36 28.4323 40.8L33.7923 42.02C35.3257 42.34 36.5657 42.8133 37.5123 43.44C38.459 44.0533 39.1857 44.7533 39.6923 45.54C40.199 46.3267 40.5457 47.1467 40.7323 48C40.919 48.84 41.0123 49.6467 41.0123 50.42C41.0123 51.9133 40.5657 53.2667 39.6723 54.48C38.779 55.68 37.5057 56.6333 35.8523 57.34C34.199 58.0467 32.219 58.4 29.9123 58.4ZM65.9236 44.92H51.1236V58H46.8436V29.08H51.1236V41.2H65.9236V29.08H70.2036V58H65.9236V44.92Z" fill="white"/>
<path d="M114.76 58.4C113.387 58.4 112.047 58.2267 110.74 57.88C109.433 57.5333 108.247 57.02 107.18 56.34C106.113 55.6467 105.227 54.7867 104.52 53.76C103.827 52.7333 103.393 51.5333 103.22 50.16H107.68C107.907 51.2 108.353 52.0733 109.02 52.78C109.7 53.4867 110.533 54.02 111.52 54.38C112.507 54.74 113.58 54.92 114.74 54.92C116.02 54.92 117.167 54.7467 118.18 54.4C119.207 54.04 120.02 53.5333 120.62 52.88C121.22 52.2133 121.52 51.4133 121.52 50.48C121.52 49.64 121.313 48.9267 120.9 48.34C120.5 47.7533 119.927 47.2667 119.18 46.88C118.447 46.48 117.56 46.1667 116.52 45.94L111.04 44.7C108.893 44.2467 107.2 43.4067 105.96 42.18C104.733 40.94 104.113 39.3 104.1 37.26C104.087 35.5533 104.533 34.06 105.44 32.78C106.36 31.5 107.613 30.5067 109.2 29.8C110.787 29.08 112.593 28.72 114.62 28.72C116.98 28.72 118.96 29.1133 120.56 29.9C122.173 30.6867 123.393 31.7267 124.22 33.02C125.047 34.3 125.467 35.6933 125.48 37.2H121.1C120.993 35.9733 120.633 35 120.02 34.28C119.407 33.56 118.633 33.0467 117.7 32.74C116.78 32.42 115.767 32.26 114.66 32.26C113.86 32.26 113.093 32.36 112.36 32.56C111.627 32.76 110.98 33.0533 110.42 33.44C109.86 33.8267 109.413 34.3067 109.08 34.88C108.76 35.44 108.6 36.0867 108.6 36.82C108.6 37.8067 108.933 38.6067 109.6 39.22C110.267 39.8333 111.493 40.36 113.28 40.8L118.64 42.02C120.173 42.34 121.413 42.8133 122.36 43.44C123.307 44.0533 124.033 44.7533 124.54 45.54C125.047 46.3267 125.393 47.1467 125.58 48C125.767 48.84 125.86 49.6467 125.86 50.42C125.86 51.9133 125.413 53.2667 124.52 54.48C123.627 55.68 122.353 56.6333 120.7 57.34C119.047 58.0467 117.067 58.4 114.76 58.4ZM131.048 58V28.28H135.268V40.34C135.602 39.7933 136.048 39.2733 136.608 38.78C137.182 38.2867 137.875 37.8867 138.688 37.58C139.515 37.26 140.475 37.1 141.568 37.1C142.915 37.1 144.128 37.3533 145.208 37.86C146.302 38.3533 147.168 39.0733 147.808 40.02C148.462 40.9533 148.788 42.0667 148.788 43.36V58H144.508V44.14C144.508 42.98 144.108 42.0867 143.308 41.46C142.508 40.8333 141.482 40.52 140.228 40.52C139.388 40.52 138.588 40.6667 137.828 40.96C137.082 41.24 136.475 41.6667 136.008 42.24C135.555 42.8 135.328 43.5067 135.328 44.36V58H131.048ZM160.013 58.4C158.679 58.4 157.493 58.16 156.452 57.68C155.426 57.2 154.619 56.5067 154.033 55.6C153.446 54.6933 153.153 53.6 153.153 52.32C153.153 50.0267 153.966 48.3133 155.593 47.18C157.219 46.0467 159.813 45.4467 163.373 45.38L166.773 45.28V43.78C166.773 42.5933 166.419 41.66 165.713 40.98C165.006 40.3 163.919 39.9667 162.453 39.98C161.346 39.98 160.359 40.2333 159.493 40.74C158.639 41.2467 158.079 42.08 157.813 43.24H154.093C154.173 41.8667 154.566 40.7133 155.273 39.78C155.993 38.8333 156.979 38.12 158.233 37.64C159.486 37.16 160.959 36.92 162.653 36.92C164.533 36.92 166.079 37.18 167.293 37.7C168.506 38.2067 169.406 38.9533 169.993 39.94C170.593 40.9267 170.893 42.1267 170.893 43.54V58H167.273L166.933 54.2C166.159 55.7867 165.179 56.8867 163.993 57.5C162.819 58.1 161.493 58.4 160.013 58.4ZM161.353 55.42C162.006 55.42 162.653 55.3067 163.293 55.08C163.933 54.84 164.513 54.52 165.033 54.12C165.553 53.7067 165.966 53.2467 166.273 52.74C166.593 52.2333 166.759 51.7133 166.773 51.18V47.76L163.973 47.82C162.546 47.8333 161.333 47.98 160.333 48.26C159.346 48.54 158.586 48.9733 158.053 49.56C157.533 50.1467 157.273 50.9267 157.273 51.9C157.273 53.0067 157.659 53.8733 158.433 54.5C159.206 55.1133 160.179 55.42 161.353 55.42ZM182.508 58.28C181.281 58.28 180.294 58.12 179.548 57.8C178.814 57.48 178.254 57.0533 177.868 56.52C177.481 55.9733 177.221 55.36 177.088 54.68C176.968 53.9867 176.908 53.2733 176.908 52.54V28.28H181.128V52.1C181.128 53.06 181.314 53.7933 181.688 54.3C182.074 54.8067 182.661 55.0933 183.448 55.16L184.528 55.2V57.92C184.194 58.0267 183.848 58.1133 183.488 58.18C183.141 58.2467 182.814 58.28 182.508 58.28ZM196.323 58.4C193.603 58.4 191.463 57.4733 189.903 55.62C188.343 53.7533 187.563 51.0667 187.563 47.56C187.563 45.4133 187.876 43.5467 188.503 41.96C189.129 40.36 190.063 39.12 191.303 38.24C192.556 37.36 194.103 36.92 195.943 36.92C196.876 36.92 197.703 37.0333 198.423 37.26C199.156 37.4867 199.796 37.78 200.343 38.14C200.903 38.5 201.363 38.8867 201.723 39.3C202.096 39.7133 202.383 40.1 202.583 40.46V28.28H206.883V58H203.683L203.203 53.76C203.056 54.2133 202.829 54.7067 202.523 55.24C202.216 55.7733 201.796 56.28 201.263 56.76C200.743 57.24 200.076 57.6333 199.263 57.94C198.449 58.2467 197.469 58.4 196.323 58.4ZM197.143 55.18C199.063 55.18 200.449 54.58 201.303 53.38C202.156 52.1667 202.583 50.18 202.583 47.42C202.569 45.86 202.376 44.54 202.003 43.46C201.629 42.38 201.049 41.5667 200.263 41.02C199.489 40.46 198.469 40.18 197.203 40.18C195.616 40.18 194.323 40.7533 193.323 41.9C192.323 43.0333 191.823 44.8733 191.823 47.42C191.823 49.9267 192.276 51.8467 193.183 53.18C194.103 54.5133 195.423 55.18 197.143 55.18ZM215.929 48.66C215.929 49.9 216.129 51.0133 216.529 52C216.942 52.9733 217.562 53.7467 218.389 54.32C219.216 54.88 220.242 55.16 221.469 55.16C222.696 55.16 223.756 54.88 224.649 54.32C225.556 53.76 226.149 52.9267 226.429 51.82H230.389C230.149 53.2333 229.582 54.4333 228.689 55.42C227.809 56.4067 226.742 57.1533 225.489 57.66C224.236 58.1533 222.922 58.4 221.549 58.4C219.589 58.4 217.862 57.98 216.369 57.14C214.876 56.2867 213.709 55.0733 212.869 53.5C212.042 51.9267 211.629 50.0533 211.629 47.88C211.629 45.7333 212.009 43.84 212.769 42.2C213.529 40.5467 214.629 39.2533 216.069 38.32C217.509 37.3867 219.242 36.92 221.269 36.92C223.269 36.92 224.949 37.3467 226.309 38.2C227.682 39.0533 228.722 40.2533 229.429 41.8C230.136 43.3333 230.489 45.1467 230.489 47.24V48.66H215.929ZM215.929 45.88H226.409C226.409 44.8 226.222 43.82 225.849 42.94C225.476 42.0467 224.902 41.3467 224.129 40.84C223.369 40.32 222.409 40.06 221.249 40.06C220.062 40.06 219.076 40.3467 218.289 40.92C217.502 41.4933 216.909 42.2267 216.509 43.12C216.122 44.0133 215.929 44.9333 215.929 45.88ZM235.267 58V37.32H239.367V41.56C239.714 40.5467 240.194 39.7 240.807 39.02C241.434 38.3267 242.161 37.8067 242.987 37.46C243.814 37.1 244.687 36.92 245.607 36.92C245.887 36.92 246.154 36.94 246.407 36.98C246.661 37.0067 246.861 37.06 247.007 37.14V41.26C246.834 41.18 246.607 41.1267 246.327 41.1C246.061 41.0733 245.827 41.0533 245.627 41.04C244.721 40.9733 243.894 41.02 243.147 41.18C242.401 41.34 241.754 41.6067 241.207 41.98C240.674 42.3533 240.261 42.84 239.967 43.44C239.687 44.04 239.547 44.7467 239.547 45.56V58H235.267Z" fill="white"/>
<defs>
<linearGradient id="paint0_linear_67_448" x1="78.7" y1="43" x2="2.00001" y2="43" gradientUnits="userSpaceOnUse">
<stop stop-color="#FB9F92"/>
<stop offset="1" stop-color="#D06657"/>
</linearGradient>
<linearGradient id="paint1_linear_67_448" x1="11.3" y1="43" x2="88" y2="43" gradientUnits="userSpaceOnUse">
<stop stop-color="#FB9F92"/>
<stop offset="1" stop-color="#D06657"/>
</linearGradient>
</defs>
</svg>
