<svg width="17" height="10" viewBox="0 0 17 10" fill="none" xmlns="http://www.w3.org/2000/svg">
<path d="M0.245093 1.17157C0.995239 0.421428 2.01265 0 3.07352 0H13.9265C14.9873 0 16.0048 0.421428 16.7549 1.17157L16.8293 1.24596C16.8923 1.30895 16.8477 1.41667 16.7586 1.41667H0.241421C0.15233 1.41667 0.107714 1.30895 0.170711 1.24596L0.245093 1.17157Z" fill="white"/>
<path d="M0.245093 8.74508C0.995239 9.49523 2.01265 9.91666 3.07352 9.91666H13.9265C14.9873 9.91666 16.0048 9.49523 16.7549 8.74508L16.8293 8.6707C16.8923 8.6077 16.8477 8.49999 16.7586 8.49999H0.241421C0.15233 8.49999 0.107714 8.6077 0.170711 8.6707L0.245093 8.74508Z" fill="white"/>
<rect y="4.25" width="17" height="1.41667" fill="white"/>
</svg>
