<svg width="99" height="67" viewBox="0 0 99 67" fill="none" xmlns="http://www.w3.org/2000/svg">
<path d="M18.0146 34.0525C18.1397 33.5457 18.8603 33.5456 18.9854 34.0525L21.5326 44.3706C21.6662 44.9115 22.0885 45.3338 22.6294 45.4674L32.9475 48.0146C33.4544 48.1397 33.4544 48.8603 32.9475 48.9854L22.6294 51.5326C22.0885 51.6662 21.6662 52.0885 21.5326 52.6294L18.9854 62.9475C18.8603 63.4544 18.1397 63.4544 18.0146 62.9475L15.4674 52.6294C15.3338 52.0885 14.9115 51.6662 14.3706 51.5326L4.05253 48.9854C3.54565 48.8603 3.54564 48.1397 4.05254 48.0146L14.3706 45.4674C14.9115 45.3338 15.3338 44.9115 15.4674 44.3706L18.0146 34.0525Z" stroke="#D15EF7"/>
<path d="M69.0146 4.05254C69.1397 3.54565 69.8603 3.54565 69.9854 4.05254L74.7105 23.1927C74.844 23.7336 75.2664 24.156 75.8073 24.2895L94.9475 29.0146C95.4544 29.1397 95.4543 29.8603 94.9475 29.9854L75.8073 34.7105C75.2664 34.844 74.844 35.2664 74.7105 35.8073L69.9854 54.9475C69.8603 55.4544 69.1397 55.4543 69.0146 54.9475L64.2895 35.8073C64.156 35.2664 63.7336 34.844 63.1927 34.7105L44.0525 29.9854C43.5456 29.8603 43.5457 29.1397 44.0525 29.0146L63.1927 24.2895C63.7336 24.156 64.156 23.7336 64.2895 23.1927L69.0146 4.05254Z" stroke="#D15EF7"/>
</svg>
